<svg id="Camada_1" data-name="Camada 1" xmlns="http://www.w3.org/2000/svg" viewBox="0 0 389 35"><defs><style>.cls-1{fill:#fff;}</style></defs><g id="f_bra01_logo01" data-name="f bra01 logo01"><path id="Caminho_1" data-name="Caminho 1" class="cls-1" d="M41.54,13.57a6.51,6.51,0,0,1,1.59.17,4.25,4.25,0,0,0,.07-.8,4,4,0,0,0-.07-.78,7.87,7.87,0,0,0-1.81-.23c-2.56,0-4.53,1.47-4.53,4.76v12.6a6.25,6.25,0,0,0,1,.1,7.32,7.32,0,0,0,1.05-.1V19h4.32a6.25,6.25,0,0,0,.08-.86,4.13,4.13,0,0,0-.08-.78H38.81v-.76C38.81,14.5,39.78,13.57,41.54,13.57Z" transform="translate(0 0)"/><path id="Caminho_2" data-name="Caminho 2" class="cls-1" d="M53.06,17.35V27.53a9.92,9.92,0,0,1-2.49.29c-2.27,0-3.46-1.22-3.46-3.88V17.36a4.66,4.66,0,0,0-1-.1,5.33,5.33,0,0,0-1.05.1V24c0,3.61,1.9,5.44,5.37,5.44a17.77,17.77,0,0,0,4.64-.68V17.35a6.78,6.78,0,0,0-1-.1A7,7,0,0,0,53.06,17.35Z" transform="translate(0 0)"/><path id="Caminho_3" data-name="Caminho 3" class="cls-1" d="M62.6,17.16a18.07,18.07,0,0,0-4.68.68V29.29a5.32,5.32,0,0,0,1,.1,6.12,6.12,0,0,0,1-.1V19.09a10.37,10.37,0,0,1,2.54-.29C64.77,18.8,66,20,66,22.7v6.59a6.51,6.51,0,0,0,1,.1,7.46,7.46,0,0,0,1-.1V22.62C68,19,66.07,17.16,62.6,17.16Z" transform="translate(0 0)"/><path id="Caminho_4" data-name="Caminho 4" class="cls-1" d="M78.32,13.57V17.4a8.81,8.81,0,0,0-2.17-.24c-3.54,0-5.88,2.44-5.88,6.34s2.29,6,5.76,6a13.89,13.89,0,0,0,4.32-.73v-17a6.13,6.13,0,0,0-1.66.92A1.07,1.07,0,0,0,78.32,13.57Zm0,14a8.75,8.75,0,0,1-2.22.32c-2.42,0-3.78-1.61-3.78-4.35,0-3.14,1.56-4.71,3.92-4.71a8.11,8.11,0,0,1,2.08.25Z" transform="translate(0 0)"/><path id="Caminho_5" data-name="Caminho 5" class="cls-1" d="M86.76,17.16a11.15,11.15,0,0,0-3.14.46,3.92,3.92,0,0,0-.08.76,4.58,4.58,0,0,0,.08.83,11,11,0,0,1,3.07-.41c2,0,3,.9,3,2.93v.46a13.48,13.48,0,0,0-2.2-.15c-3.05,0-4.9,1.35-4.9,3.64,0,2.64,2,3.81,4.76,3.81a15.63,15.63,0,0,0,4.24-.61V22C91.65,18.6,89.72,17.16,86.76,17.16Zm3,10.49a11.72,11.72,0,0,1-2.29.25c-1.9,0-2.93-.81-2.93-2.27s1.07-2.12,3.17-2.12a11.7,11.7,0,0,1,2,.12Z" transform="translate(0 0)"/><path id="Caminho_6" data-name="Caminho 6" class="cls-1" d="M99.7,27.8c-2.59,0-3.71-1.71-3.71-4.52s1.15-4.46,3.68-4.46a6.5,6.5,0,0,1,2.54.54,4.73,4.73,0,0,0,.07-.83,4.15,4.15,0,0,0-.07-.79,6.87,6.87,0,0,0-2.9-.58c-3.34,0-5.37,2.49-5.37,6.15s1.66,5.81,4.71,6.12a2.05,2.05,0,0,1,.47,1.27A1.19,1.19,0,0,1,98,31.91H97.8a4.26,4.26,0,0,1-1.73-.36,3.82,3.82,0,0,0,0,.68,3.67,3.67,0,0,0,0,.66,4.75,4.75,0,0,0,2,.39,2.29,2.29,0,0,0,2.57-2c0-.11,0-.21,0-.31a2.58,2.58,0,0,0-.56-1.56,6.72,6.72,0,0,0,2.34-.54,3.56,3.56,0,0,0,.07-.8,3.47,3.47,0,0,0-.07-.79A8.37,8.37,0,0,1,99.7,27.8Z" transform="translate(0 0)"/><path id="Caminho_7" data-name="Caminho 7" class="cls-1" d="M108.12,17.16a11.17,11.17,0,0,0-3.15.46,3.91,3.91,0,0,0-.07.76,4.57,4.57,0,0,0,.07.83,11,11,0,0,1,3.08-.41c2,0,3,.9,3,2.93v.46a13.56,13.56,0,0,0-2.2-.15c-3.05,0-4.91,1.35-4.91,3.64,0,2.64,2,3.81,4.76,3.81a15.65,15.65,0,0,0,4.25-.61V22C113,18.6,111.07,17.16,108.12,17.16Zm3,10.49a11.91,11.91,0,0,1-2.3.25c-1.9,0-2.93-.81-2.93-2.27s1.08-2.12,3.18-2.12a11.76,11.76,0,0,1,2,.12Z" transform="translate(0 0)"/><path id="Caminho_8" data-name="Caminho 8" class="cls-1" d="M107.19,14.6a3.3,3.3,0,0,1,1.3.34,3.78,3.78,0,0,0,1.58.41,3,3,0,0,0,1.9-.71c0-.23,0-.47,0-.7s0-.46,0-.69a3.23,3.23,0,0,1-1.9.69,3.73,3.73,0,0,1-1.54-.39,3.12,3.12,0,0,0-1.34-.37,1.36,1.36,0,0,0-1.84.59,1.39,1.39,0,0,0-.14.83,3.08,3.08,0,0,0,.07.68A3.18,3.18,0,0,1,107.19,14.6Z" transform="translate(0 0)"/><path id="Caminho_9" data-name="Caminho 9" class="cls-1" d="M120.57,17.16c-3.25,0-5.28,2.27-5.28,6.18s2,6.15,5.25,6.15,5.3-2.32,5.3-6.15S123.91,17.16,120.57,17.16Zm0,10.69c-2.1,0-3.2-1.61-3.2-4.52s1.14-4.54,3.22-4.54,3.22,1.54,3.22,4.54S122.66,27.85,120.54,27.85Z" transform="translate(0 0)"/><path id="Caminho_10" data-name="Caminho 10" class="cls-1" d="M138.11,16.06a6.21,6.21,0,0,0-2.66.54V10.26a10.37,10.37,0,0,0-2.94,1.6,1.43,1.43,0,0,0-.6,1.28V28.79a13.78,13.78,0,0,0,4.68.75c4.63,0,7.28-2.83,7.28-6.92S142,16.06,138.11,16.06Zm-1.32,10.6a4.35,4.35,0,0,1-1.34-.15V19.4a4.29,4.29,0,0,1,2.06-.4c1.77,0,2.71,1.22,2.71,3.54s-1.11,4.11-3.43,4.11Z" transform="translate(0 0)"/><path id="Caminho_11" data-name="Caminho 11" class="cls-1" d="M152.9,16.17A4.11,4.11,0,0,0,149.33,18a8.75,8.75,0,0,0-.4-1.68,5.53,5.53,0,0,0-1.46-.15,6.78,6.78,0,0,0-1.42.15V29.25a8,8,0,0,0,1.77.15,10.57,10.57,0,0,0,1.77-.15V22.94c0-2.51,1.31-3.85,3.08-3.85a9.08,9.08,0,0,1,1.17.05,7.2,7.2,0,0,0,.06-2.85A5.58,5.58,0,0,0,152.9,16.17Z" transform="translate(0 0)"/><path id="Caminho_12" data-name="Caminho 12" class="cls-1" d="M175.29,13.14v3.11a7.74,7.74,0,0,0-1.86-.2c-3.91,0-6.56,2.63-6.56,6.83s2.6,6.66,6.65,6.66a17.35,17.35,0,0,0,5.31-.8V10.26a10.37,10.37,0,0,0-2.94,1.6A1.46,1.46,0,0,0,175.29,13.14Zm0,13.31a4.83,4.83,0,0,1-1.51.2c-2.34,0-3.26-1.54-3.26-3.77,0-2.48.92-4,3.23-4a5.34,5.34,0,0,1,1.54.2Z" transform="translate(0 0)"/><path id="Caminho_13" data-name="Caminho 13" class="cls-1" d="M159.44,16a14.53,14.53,0,0,0-3.83.43,6.3,6.3,0,0,0,0,2.8,12.8,12.8,0,0,1,3.26-.38c1.83,0,2.71.75,2.71,2.26v.14c-.54-.05-1.2-.11-1.65-.11-3,0-5.63,1.08-5.63,4,0,3.28,2.34,4.4,5.74,4.4a17.57,17.57,0,0,0,4.94-.77v-7.4C165,17.83,163.07,16.08,159.44,16Zm2.14,10.62a9.54,9.54,0,0,1-1.51.15c-1.63,0-2.51-.49-2.51-1.63s.88-1.6,2.51-1.6c.54,0,1.17.05,1.51.08Z" transform="translate(0 0)"/><path id="Caminho_14" data-name="Caminho 14" class="cls-1" d="M211.65,26.62c-1.77,0-2.94-1.4-2.94-3.85s.94-3.86,3-3.86a5.63,5.63,0,0,1,2.25.46,7.6,7.6,0,0,1,1.26-2.49,7.91,7.91,0,0,0-4-.88c-3.91,0-6.17,2.77-6.17,6.77s2.31,6.77,6.31,6.77a8.08,8.08,0,0,0,3.89-.86,8.14,8.14,0,0,1-1.35-2.49A4.84,4.84,0,0,1,211.65,26.62Z" transform="translate(0 0)"/><path id="Caminho_15" data-name="Caminho 15" class="cls-1" d="M221.56,16c-4,0-6.2,2.71-6.2,6.8s2.34,6.74,6.2,6.74,6.23-2.66,6.23-6.74S225.56,16,221.56,16Zm0,10.68c-2,0-2.57-1.6-2.57-3.88s.6-3.95,2.57-3.95,2.6,1.66,2.6,3.95S223.5,26.68,221.56,26.68Z" transform="translate(0 0)"/><path id="Caminho_16" data-name="Caminho 16" class="cls-1" d="M187,16c-3.83,0-6.17,2.57-6.17,6.85s2.49,6.69,6.74,6.69a10.12,10.12,0,0,0,4-.75,6.33,6.33,0,0,0,0-2.74,13,13,0,0,1-3.66.6c-2,0-3.34-.74-3.62-2.83h8.05a8.31,8.31,0,0,0,.14-1.8C192.51,18.17,190.34,16,187,16Zm-2.68,5.22a2.63,2.63,0,0,1,2.62-2.51c1.6,0,2.23,1.09,2.29,2.51Z" transform="translate(0 0)"/><path id="Caminho_17" data-name="Caminho 17" class="cls-1" d="M200.63,21.57,199.2,21c-.83-.35-1.32-.63-1.32-1.17,0-.83.75-1,1.72-1a10.57,10.57,0,0,1,3.34.54,7,7,0,0,0,0-2.66,9.43,9.43,0,0,0-3.86-.68c-2.74,0-4.82,1.48-4.82,3.71,0,2,.85,3,3.25,4l1.12.46c1.05.43,1.37.68,1.37,1.37,0,1-1,1.2-1.89,1.2a11,11,0,0,1-3.88-.77,5.65,5.65,0,0,0,0,2.77,9.86,9.86,0,0,0,4.45.83c2.72,0,4.89-1.43,4.89-4C203.57,23.42,202.65,22.42,200.63,21.57Z" transform="translate(0 0)"/><path id="Caminho_18" data-name="Caminho 18" class="cls-1" d="M14.59,6.29a33.89,33.89,0,0,0-5.69.49,10.8,10.8,0,0,1,8.54-4.14A11,11,0,0,1,24.28,5c.31.26.55.28.79,0s.21-.47-.05-.77A12.07,12.07,0,0,0,4.49,7.79,22.06,22.06,0,0,0,.38,9.51c-.33.19-.45.42-.33.71a.52.52,0,0,0,.69.25c1.05-.3,2.13-.56,3.25-.8a9.5,9.5,0,0,0-.19,1.84A11.89,11.89,0,0,0,9.3,21.68c.34.21.62.21.81-.05s.17-.49-.12-.75a10.38,10.38,0,0,1-3.34-7.65,10,10,0,0,1,.83-4.07C8.61,9.06,9.83,9,11.17,9c8.7,0,16,2.87,16,6.64,0,1.91-2.42,3.81-5.29,5.08-.69.31-.77.52-.67.83s.41.37.76.26c5-1.65,8.83-4.36,8.83-7.63C30.85,9.72,23.68,6.29,14.59,6.29Z" transform="translate(0 0)"/><path id="Caminho_19" data-name="Caminho 19" class="cls-1" d="M18.1,19.05l-2.58,1.48v8.84h2.76a.46.46,0,0,0,.47-.46V19.38a.4.4,0,0,0-.39-.41A.37.37,0,0,0,18.1,19.05Z" transform="translate(0 0)"/><path id="Caminho_20" data-name="Caminho 20" class="cls-1" d="M12.73,22.49v6.59a.3.3,0,0,0,.3.29H14.8V21L13,22A.56.56,0,0,0,12.73,22.49Z" transform="translate(0 0)"/><rect id="Retângulo_59" data-name="Retângulo 59" class="cls-1" x="239.49" y="10.41" width="1.34" height="24.59"/><path id="Caminho_21" data-name="Caminho 21" class="cls-1" d="M256.23,17.16a6,6,0,1,0,5.15,9.5L259,25.31a3.13,3.13,0,0,1-2.53,1.12,3,3,0,0,1-3.18-2.12h8.51a6.78,6.78,0,0,0,.11-1.2,5.69,5.69,0,0,0-5.44-5.94Zm-3,4.9a2.8,2.8,0,0,1,3-2.28,2.74,2.74,0,0,1,2.8,2.28Z" transform="translate(0 0)"/><path id="Caminho_22" data-name="Caminho 22" class="cls-1" d="M266.2,20.68c0-.61.59-.93,1.31-.93a1.92,1.92,0,0,1,1.81,1.16l2.48-1.36a4.74,4.74,0,0,0-4.29-2.39c-2.32,0-4.28,1.29-4.28,3.59,0,4,5.82,3.07,5.82,4.71,0,.66-.63,1-1.56,1A2.15,2.15,0,0,1,265.28,25l-2.53,1.42a4.85,4.85,0,0,0,4.74,2.68c2.42,0,4.54-1.17,4.54-3.61C272,21.31,266.2,22.35,266.2,20.68Z" transform="translate(0 0)"/><path id="Caminho_23" data-name="Caminho 23" class="cls-1" d="M279.09,26.18a3.08,3.08,0,0,1,0-6.16,2.79,2.79,0,0,1,2.57,1.52l2.5-1.47a5.66,5.66,0,0,0-5.05-2.91,6,6,0,1,0,5.1,9l-2.53-1.45A2.77,2.77,0,0,1,279.09,26.18Z" transform="translate(0 0)"/><path id="Caminho_24" data-name="Caminho 24" class="cls-1" d="M290.94,17.16a6,6,0,1,0,6,6,5.88,5.88,0,0,0-5.83-6Zm0,9.07A3.12,3.12,0,1,1,294,23.07v.05a3,3,0,0,1-2.88,3.11Z" transform="translate(0 0)"/><rect id="Retângulo_60" data-name="Retângulo 60" class="cls-1" x="298.97" y="12.28" width="2.91" height="16.47"/><path id="Caminho_25" data-name="Caminho 25" class="cls-1" d="M313.12,18.81a4.5,4.5,0,0,0-3.68-1.65,6,6,0,0,0,0,11.91,4.47,4.47,0,0,0,3.68-1.64v1.33H316V17.47h-2.91ZM310,26.3a3.19,3.19,0,1,1,3.14-3.23v0a3,3,0,0,1-2.87,3.19Z" transform="translate(0 0)"/><path id="Caminho_26" data-name="Caminho 26" class="cls-1" d="M329,25.37l-2.73-7.9h-3.2l4.29,11.28h3.31l4.29-11.28h-3.2Z" transform="translate(0 0)"/><rect id="Retângulo_61" data-name="Retângulo 61" class="cls-1" x="336.33" y="17.47" width="2.91" height="11.28"/><path id="Caminho_27" data-name="Caminho 27" class="cls-1" d="M337.78,12.53A1.82,1.82,0,0,0,336,14.34a1.8,1.8,0,0,0,3.59,0A1.84,1.84,0,0,0,337.78,12.53Z" transform="translate(0 0)"/><path id="Caminho_28" data-name="Caminho 28" class="cls-1" d="M344.82,19.41V17.47h-2.91V28.76h2.91V23.37c0-2.37,1.91-3.05,3.43-2.87V17.25A3.47,3.47,0,0,0,344.82,19.41Z" transform="translate(0 0)"/><path id="Caminho_29" data-name="Caminho 29" class="cls-1" d="M354.16,14.32l-2.91.88v2.27h-2v2.8h2V25c0,3,1.38,4.24,5.46,3.79V26.11c-1.67.09-2.55.07-2.55-1.15V20.27h2.55v-2.8h-2.55Z" transform="translate(0 0)"/><path id="Caminho_30" data-name="Caminho 30" class="cls-1" d="M366.39,23.57c0,2-1.06,2.8-2.48,2.8a2.1,2.1,0,0,1-2.24-1.95,2.41,2.41,0,0,1,0-.38V17.48h-2.91V24.4c0,3,1.88,4.67,4.27,4.67a3.81,3.81,0,0,0,3.36-1.57v1.25h2.91V17.47h-2.91Z" transform="translate(0 0)"/><path id="Caminho_31" data-name="Caminho 31" class="cls-1" d="M380.54,18.81a4.5,4.5,0,0,0-3.68-1.65,6,6,0,0,0,0,11.91,4.47,4.47,0,0,0,3.68-1.64v1.33h2.91V17.47h-2.91ZM377.4,26.3a3.19,3.19,0,1,1,3.14-3.23v0a3,3,0,0,1-2.87,3.19Z" transform="translate(0 0)"/><rect id="Retângulo_62" data-name="Retângulo 62" class="cls-1" x="386.09" y="12.28" width="2.91" height="16.47"/></g></svg>