<svg id="Camada_1" data-name="Camada 1" xmlns="http://www.w3.org/2000/svg" viewBox="0 0 38.8 38.8"><defs><style>.cls-1{fill:#8e8e8e;}</style></defs><path class="cls-1" d="M974.2,526.27a1.58,1.58,0,0,1,0,2.24l-2.33,2.33a1.58,1.58,0,0,1-2.24,0l0-.05a1.6,1.6,0,0,1,0-2.24l2.34-2.33a1.58,1.58,0,0,1,2.24,0Z" transform="translate(-941.06 -520.56)"/><path class="cls-1" d="M960.5,520.56a1.58,1.58,0,0,1,1.58,1.58v3.31A1.58,1.58,0,0,1,960.5,527h-.07a1.59,1.59,0,0,1-1.59-1.58v-3.31a1.59,1.59,0,0,1,1.59-1.58Z" transform="translate(-941.06 -520.56)"/><path class="cls-1" d="M951.32,528.53a1.62,1.62,0,0,1,0,2.29h0a1.62,1.62,0,0,1-2.29,0l-2.29-2.29a1.62,1.62,0,0,1,0-2.29h0a1.62,1.62,0,0,1,2.29,0Z" transform="translate(-941.06 -520.56)"/><path class="cls-1" d="M945.91,538.34a1.63,1.63,0,0,1,1.62,1.62h0a1.63,1.63,0,0,1-1.62,1.62h-3.23a1.63,1.63,0,0,1-1.62-1.62h0a1.63,1.63,0,0,1,1.62-1.62Z" transform="translate(-941.06 -520.56)"/><path class="cls-1" d="M951.34,549.13a1.58,1.58,0,0,1,0,2.24L949,553.7a1.58,1.58,0,0,1-2.24,0l0,0a1.58,1.58,0,0,1,0-2.24l2.33-2.34a1.6,1.6,0,0,1,2.24,0Z" transform="translate(-941.06 -520.56)"/><path class="cls-1" d="M960.5,552.89a1.59,1.59,0,0,1,1.58,1.59v3.3a1.58,1.58,0,0,1-1.58,1.58h-.07a1.59,1.59,0,0,1-1.59-1.58v-3.3a1.59,1.59,0,0,1,1.59-1.59Z" transform="translate(-941.06 -520.56)"/><path class="cls-1" d="M974.2,551.42a1.58,1.58,0,0,1,0,2.24l0,0a1.58,1.58,0,0,1-2.24,0l-2.34-2.33a1.6,1.6,0,0,1,0-2.24l0,0a1.6,1.6,0,0,1,2.24,0Z" transform="translate(-941.06 -520.56)"/><path class="cls-1" d="M978.28,538.34a1.59,1.59,0,0,1,1.58,1.59V540a1.59,1.59,0,0,1-1.58,1.59H975a1.59,1.59,0,0,1-1.59-1.58v-.07a1.59,1.59,0,0,1,1.59-1.59Z" transform="translate(-941.06 -520.56)"/><path class="cls-1" d="M950.76,540a9.7,9.7,0,1,0,9.7-9.7A9.7,9.7,0,0,0,950.76,540Z" transform="translate(-941.06 -520.56)"/></svg>