<svg id="Camada_1" data-name="Camada 1" xmlns="http://www.w3.org/2000/svg" viewBox="0 0 460 142.51"><defs><style>.cls-1{fill:#c81b39;}.cls-2{fill:#ededed;}.cls-3{fill:#fff;}.cls-4,.cls-5,.cls-6{fill:none;stroke-miterlimit:10;stroke-width:0.71px;}.cls-4{stroke:#ededed;}.cls-5{stroke:#c81b39;}.cls-6{stroke:#dadada;}.cls-7{fill:#70706f;}</style></defs><path class="cls-1" d="M374.5,224.8H527.6v28.3H374.5Zm-153,0H374.6v28.3H221.5Zm-153.1,0H221.5v28.3H68.4Z" transform="translate(-68 -224.45)"/><path class="cls-2" d="M68.4,338.2H221.5v28.3H68.4Zm0-28.3H221.5v28.3H68.4Zm0-28.4H221.5v28.3H68.4Zm0-28.3H221.5v28.3H68.4Z" transform="translate(-68 -224.45)"/><path class="cls-3" d="M374.5,338.2H527.6v28.3H374.5Zm-153,0H374.6v28.3H221.5Zm153-28.3H527.6v28.3H374.5Zm-153,0H374.6v28.3H221.5Zm153-28.4H527.6v28.3H374.5Zm-153,0H374.6v28.3H221.5Zm153-28.3H527.6v28.3H374.5Zm-153,0H374.6v28.3H221.5Z" transform="translate(-68 -224.45)"/><line class="cls-4" x1="306.5" y1="56.75" x2="306.5" y2="29.05"/><line class="cls-4" x1="0.7" y1="57.05" x2="153.5" y2="57.05"/><line class="cls-4" x1="306.5" y1="85.05" x2="306.5" y2="57.45"/><line class="cls-4" x1="0.7" y1="85.45" x2="153.5" y2="85.45"/><line class="cls-4" x1="0.7" y1="113.75" x2="153.5" y2="113.75"/><line class="cls-4" x1="153.5" y1="57.05" x2="306.5" y2="57.05"/><line class="cls-4" x1="306.5" y1="57.05" x2="460" y2="57.05"/><line class="cls-4" x1="306.5" y1="85.45" x2="460" y2="85.45"/><line class="cls-4" x1="153.5" y1="85.45" x2="306.5" y2="85.45"/><line class="cls-4" x1="306.5" y1="113.45" x2="306.5" y2="85.75"/><line class="cls-4" x1="153.5" y1="113.75" x2="306.5" y2="113.75"/><line class="cls-4" x1="306.5" y1="113.75" x2="460" y2="113.75"/><line class="cls-4" x1="306.5" y1="141.75" x2="306.5" y2="114.15"/><line class="cls-5" y1="0.35" x2="153.5" y2="0.35"/><line class="cls-5" x1="0.4" y1="28.35" x2="0.4" y2="0.75"/><line class="cls-5" x1="153.5" y1="0.35" x2="306.5" y2="0.35"/><line class="cls-5" x1="306.5" y1="0.35" x2="460" y2="0.35"/><line class="cls-5" x1="459.6" y1="28.35" x2="459.6" y2="0.75"/><line class="cls-4" x1="153.5" y1="28.75" x2="306.5" y2="28.75"/><line class="cls-4" x1="306.5" y1="28.75" x2="460" y2="28.75"/><line class="cls-4" x1="459.6" y1="56.75" x2="459.6" y2="29.05"/><line class="cls-4" x1="459.6" y1="85.05" x2="459.6" y2="57.45"/><line class="cls-4" x1="459.6" y1="113.45" x2="459.6" y2="85.75"/><line class="cls-4" x1="459.6" y1="141.75" x2="459.6" y2="114.15"/><line class="cls-4" x1="153.5" y1="142.15" x2="306.5" y2="142.15"/><line class="cls-4" x1="306.5" y1="142.15" x2="460" y2="142.15"/><line class="cls-4" y1="28.75" x2="153.5" y2="28.75"/><line class="cls-4" x1="153.5" y1="56.75" x2="153.5" y2="29.05"/><line class="cls-4" x1="153.5" y1="85.05" x2="153.5" y2="57.45"/><line class="cls-4" x1="153.5" y1="113.45" x2="153.5" y2="85.75"/><line class="cls-4" x1="153.5" y1="141.75" x2="153.5" y2="114.15"/><line class="cls-4" y1="142.15" x2="153.5" y2="142.15"/><line class="cls-6" x1="0.4" y1="57.05" x2="0.4" y2="29.05"/><line class="cls-6" x1="0.4" y1="85.45" x2="0.4" y2="57.05"/><line class="cls-6" x1="0.4" y1="113.75" x2="0.4" y2="85.45"/><line class="cls-6" x1="0.4" y1="141.75" x2="0.4" y2="113.75"/><path class="cls-3" d="M83.2,243.6l-.6-2H79.5l-.6,2h-2l3-8.6h2.2l3,8.6Zm-1-3.6c-.6-1.8-.9-2.9-1-3.1s-.1-.4-.2-.6c-.1.5-.5,1.7-1.1,3.7Z" transform="translate(-68 -224.45)"/><path class="cls-3" d="M92,243.6H90.2v-3.8a3.09,3.09,0,0,0-.2-1.1.67.67,0,0,0-.7-.4,1.1,1.1,0,0,0-1,.5,3.42,3.42,0,0,0-.3,1.7v3.1H86.2V237h1.4l.2.8h.1a1.85,1.85,0,0,1,.8-.7,2.28,2.28,0,0,1,1.1-.3,2,2,0,0,1,2,1H92a1.85,1.85,0,0,1,.8-.7,2.64,2.64,0,0,1,2.9.3,2.44,2.44,0,0,1,.6,1.8v4.3H94.5v-3.8a3.09,3.09,0,0,0-.2-1.1.67.67,0,0,0-.7-.4,1.23,1.23,0,0,0-1,.5,2.81,2.81,0,0,0-.3,1.5v3.4Z" transform="translate(-68 -224.45)"/><path class="cls-3" d="M100.9,243.7a3.12,3.12,0,0,1-3.4-3.4,3.74,3.74,0,0,1,.8-2.5,2.87,2.87,0,0,1,2.3-.9,3.29,3.29,0,0,1,2.2.8,2.73,2.73,0,0,1,.8,2.2v.9H99.4a1.66,1.66,0,0,0,.5,1.2,1.59,1.59,0,0,0,1.2.4,3.75,3.75,0,0,0,1.1-.1,7.6,7.6,0,0,0,1.1-.4v1.4a1.69,1.69,0,0,1-1,.3C101.9,243.6,101.4,243.7,100.9,243.7Zm-.3-5.5a1,1,0,0,0-.9.4,3,3,0,0,0-.4,1h2.5a1.49,1.49,0,0,0-.3-1A1.27,1.27,0,0,0,100.6,238.2Z" transform="translate(-68 -224.45)"/><path class="cls-3" d="M107.7,242.3a5.16,5.16,0,0,0,1.1-.2v1.3a3.81,3.81,0,0,1-1.6.3,2.54,2.54,0,0,1-1.6-.5,1.94,1.94,0,0,1-.5-1.6v-3.2h-.9v-.8l1-.6.5-1.4h1.1V237h1.8v1.3H107v3.2a1.07,1.07,0,0,0,.2.6C107.3,242.3,107.5,242.3,107.7,242.3Z" transform="translate(-68 -224.45)"/><path class="cls-3" d="M234.7,236.4a1.94,1.94,0,0,0-1.6.8,3.28,3.28,0,0,0-.6,2.1c0,1.9.7,2.9,2.2,2.9a7.44,7.44,0,0,0,2.2-.5v1.5a6.05,6.05,0,0,1-2.4.4,4,4,0,0,1-2.9-1.1,4.5,4.5,0,0,1-1-3.3,5.21,5.21,0,0,1,.5-2.3,3.39,3.39,0,0,1,1.4-1.5,4.65,4.65,0,0,1,2.1-.5,5.73,5.73,0,0,1,2.5.6l-.6,1.5a3,3,0,0,0-1-.4A3.09,3.09,0,0,0,234.7,236.4Z" transform="translate(-68 -224.45)"/><path class="cls-3" d="M244.5,240.3a3.74,3.74,0,0,1-.8,2.5,2.87,2.87,0,0,1-2.3.9,3.29,3.29,0,0,1-1.7-.4,3.18,3.18,0,0,1-1.1-1.2,3.42,3.42,0,0,1-.4-1.8,3.74,3.74,0,0,1,.8-2.5,3,3,0,0,1,2.4-.9,3.29,3.29,0,0,1,1.7.4,3.18,3.18,0,0,1,1.1,1.2A3.43,3.43,0,0,1,244.5,240.3Zm-4.5,0a3.34,3.34,0,0,0,.3,1.5,1,1,0,0,0,1,.5,1.1,1.1,0,0,0,1-.5,2.81,2.81,0,0,0,.3-1.5,3.34,3.34,0,0,0-.3-1.5,1,1,0,0,0-1-.5,1.1,1.1,0,0,0-1,.5A3.06,3.06,0,0,0,240,240.3Z" transform="translate(-68 -224.45)"/><path class="cls-3" d="M252,243.6h-1.8v-3.8a1.8,1.8,0,0,0-.3-1.1.81.81,0,0,0-.8-.4,1.29,1.29,0,0,0-1.1.5,3.42,3.42,0,0,0-.3,1.7v3.1H246V237h1.4l.2.8h.1a1.78,1.78,0,0,1,.8-.7,3.73,3.73,0,0,1,1.2-.2,2.2,2.2,0,0,1,1.7.6,2.44,2.44,0,0,1,.6,1.8Z" transform="translate(-68 -224.45)"/><path class="cls-3" d="M258.4,241.6a1.58,1.58,0,0,1-.7,1.5,4.06,4.06,0,0,1-2.1.5,4.12,4.12,0,0,1-1.2-.1,9.44,9.44,0,0,1-.9-.3v-1.5a3.58,3.58,0,0,0,1.1.4,5.16,5.16,0,0,0,1.1.2c.6,0,1-.2,1-.6,0-.1,0-.3-.1-.3s-.2-.2-.4-.3a5.9,5.9,0,0,1-.8-.4,3.58,3.58,0,0,1-1.1-.6,2.65,2.65,0,0,1-.5-.6,2,2,0,0,1-.2-.9,1.62,1.62,0,0,1,.7-1.4,2.85,2.85,0,0,1,1.9-.5,5.93,5.93,0,0,1,2.3.5l-.5,1.3a3.18,3.18,0,0,0-.9-.3c-.3,0-.6-.1-.9-.1-.5,0-.8.1-.8.4s.1.3.3.4a6.14,6.14,0,0,0,1.1.5,3.58,3.58,0,0,1,1.1.6,2.65,2.65,0,0,1,.5.6A3.33,3.33,0,0,1,258.4,241.6Z" transform="translate(-68 -224.45)"/><path class="cls-3" d="M262.8,243.7a3.12,3.12,0,0,1-3.4-3.4,3.74,3.74,0,0,1,.8-2.5,2.87,2.87,0,0,1,2.3-.9,3.29,3.29,0,0,1,2.2.8,2.73,2.73,0,0,1,.8,2.2v.9h-4.2a1.66,1.66,0,0,0,.5,1.2,1.59,1.59,0,0,0,1.2.4,3.75,3.75,0,0,0,1.1-.1,7.6,7.6,0,0,0,1.1-.4v1.4a1.69,1.69,0,0,1-1,.3C263.8,243.6,263.3,243.7,262.8,243.7Zm-.3-5.5a1,1,0,0,0-.9.4,3,3,0,0,0-.4,1h2.5a1.49,1.49,0,0,0-.3-1A1.27,1.27,0,0,0,262.5,238.2Z" transform="translate(-68 -224.45)"/><path class="cls-3" d="M269.6,243.7c-2,0-3.1-1.1-3.1-3.4a4,4,0,0,1,.8-2.6,3,3,0,0,1,2.4-.9,4.21,4.21,0,0,1,2,.4l-.5,1.4c-.3-.1-.5-.2-.8-.3a2,2,0,0,0-.7-.1c-.9,0-1.4.7-1.4,2s.5,1.9,1.4,1.9a3.4,3.4,0,0,0,1-.1,3.55,3.55,0,0,0,.9-.4v1.5a3.55,3.55,0,0,1-.9.4A3.59,3.59,0,0,1,269.6,243.7Z" transform="translate(-68 -224.45)"/><path class="cls-3" d="M275.9,242.3a5.16,5.16,0,0,0,1.1-.2v1.3a3.81,3.81,0,0,1-1.6.3,2.54,2.54,0,0,1-1.6-.5,1.94,1.94,0,0,1-.5-1.6v-3.2h-.9v-.8l1-.6.5-1.4H275V237h1.8v1.3H275v3.2a1.07,1.07,0,0,0,.2.6C275.3,242.3,275.6,242.3,275.9,242.3Z" transform="translate(-68 -224.45)"/><path class="cls-3" d="M281.3,243.7a3.12,3.12,0,0,1-3.4-3.4,3.74,3.74,0,0,1,.8-2.5,2.87,2.87,0,0,1,2.3-.9,3.29,3.29,0,0,1,2.2.8,2.73,2.73,0,0,1,.8,2.2v.9h-4.2a1.66,1.66,0,0,0,.5,1.2,1.59,1.59,0,0,0,1.2.4,3.75,3.75,0,0,0,1.1-.1,7.6,7.6,0,0,0,1.1-.4v1.4a1.69,1.69,0,0,1-1,.3C282.3,243.6,281.8,243.7,281.3,243.7Zm-.3-5.5a1,1,0,0,0-.9.4,3,3,0,0,0-.4,1h2.5a1.49,1.49,0,0,0-.3-1A1.27,1.27,0,0,0,281,238.2Z" transform="translate(-68 -224.45)"/><path class="cls-3" d="M288.2,242.3a5.16,5.16,0,0,0,1.1-.2v1.3a3.81,3.81,0,0,1-1.6.3,2.54,2.54,0,0,1-1.6-.5,1.94,1.94,0,0,1-.5-1.6v-3.2h-.9v-.8l1-.6.5-1.4h1.1V237h1.8v1.3h-1.8v3.2a1.07,1.07,0,0,0,.2.6C287.6,242.3,287.9,242.3,288.2,242.3Z" transform="translate(-68 -224.45)"/><path class="cls-3" d="M295.2,243.6l-.2-.8h-.1a2.7,2.7,0,0,1-.8.7,2.34,2.34,0,0,1-1.2.2,2.2,2.2,0,0,1-1.7-.6,2.44,2.44,0,0,1-.6-1.8V237h1.8v3.8a1.8,1.8,0,0,0,.3,1.1.81.81,0,0,0,.8.4,1.29,1.29,0,0,0,1.1-.5,3.42,3.42,0,0,0,.3-1.7V237h1.8v6.6Z" transform="translate(-68 -224.45)"/><path class="cls-3" d="M302.1,236.9a1.27,1.27,0,0,1,.6.1l-.1,1.7a4.33,4.33,0,0,0-.5-.1,1.7,1.7,0,0,0-1.3.4,1.66,1.66,0,0,0-.5,1.2v3.3h-1.8V237h1.4l.3,1.1h.1a2.36,2.36,0,0,1,.8-.9A1.69,1.69,0,0,1,302.1,236.9Z" transform="translate(-68 -224.45)"/><path class="cls-3" d="M389.4,243.6l-.6-2h-3.1l-.6,2h-2l3-8.6h2.2l3,8.6Zm-1.1-3.6c-.6-1.8-.9-2.9-1-3.1s-.1-.4-.2-.6c-.1.5-.5,1.7-1.1,3.7Z" transform="translate(-68 -224.45)"/><path class="cls-3" d="M394.3,243.7a2,2,0,0,1-1.8-.9,4.37,4.37,0,0,1-.7-2.5,3.73,3.73,0,0,1,.7-2.5,2.27,2.27,0,0,1,1.8-.9,2.06,2.06,0,0,1,1.9,1h.1a6.15,6.15,0,0,1-.1-1.3v-2.1H398v9.1h-1.4l-.3-.8h-.1A2.08,2.08,0,0,1,394.3,243.7Zm.7-1.4a1.05,1.05,0,0,0,1-.4,2.42,2.42,0,0,0,.3-1.4v-.2a2.81,2.81,0,0,0-.3-1.5,1.29,1.29,0,0,0-1.1-.5,1.05,1.05,0,0,0-.9.5,2.81,2.81,0,0,0-.3,1.5,3.06,3.06,0,0,0,.3,1.5C394.2,242.2,394.5,242.3,395,242.3Z" transform="translate(-68 -224.45)"/><path class="cls-3" d="M399.8,235.3c0-.6.3-.9,1-.9s1,.3,1,.9a.85.85,0,0,1-.2.6,1.17,1.17,0,0,1-.7.2C400.1,236.2,399.8,235.9,399.8,235.3Zm1.8,8.3h-1.8V237h1.8Z" transform="translate(-68 -224.45)"/><path class="cls-3" d="M407.1,243.7a2.2,2.2,0,0,1-1.8-.8h-.1a5.1,5.1,0,0,1,.1.9v2.7h-1.8V237H405l.3.8h.1a2.15,2.15,0,0,1,1.9-1,2,2,0,0,1,1.8.9,4.37,4.37,0,0,1,.7,2.5,4.84,4.84,0,0,1-.3,1.8,2.73,2.73,0,0,1-.9,1.2A2.69,2.69,0,0,1,407.1,243.7Zm-.5-5.4a1.16,1.16,0,0,0-1,.4,2.27,2.27,0,0,0-.3,1.3v.2a2.81,2.81,0,0,0,.3,1.5,1.1,1.1,0,0,0,1,.5c.8,0,1.2-.7,1.2-2a3.34,3.34,0,0,0-.3-1.5C407.3,238.3,407,238.3,406.6,238.3Z" transform="translate(-68 -224.45)"/><path class="cls-3" d="M411,235.3c0-.6.3-.9,1-.9s1,.3,1,.9a.85.85,0,0,1-.2.6,1.17,1.17,0,0,1-.7.2C411.4,236.2,411,235.9,411,235.3Zm1.9,8.3h-1.8V237h1.8Z" transform="translate(-68 -224.45)"/><path class="cls-3" d="M419.3,241.6a1.58,1.58,0,0,1-.7,1.5,4.06,4.06,0,0,1-2.1.5,4.12,4.12,0,0,1-1.2-.1,9.44,9.44,0,0,1-.9-.3v-1.5a3.58,3.58,0,0,0,1.1.4,5.16,5.16,0,0,0,1.1.2c.6,0,1-.2,1-.6,0-.1,0-.3-.1-.3s-.2-.2-.4-.3a5.9,5.9,0,0,1-.8-.4,3.58,3.58,0,0,1-1.1-.6,2.65,2.65,0,0,1-.5-.6,2,2,0,0,1-.2-.9,1.62,1.62,0,0,1,.7-1.4,2.85,2.85,0,0,1,1.9-.5,5.93,5.93,0,0,1,2.3.5l-.5,1.3a3.18,3.18,0,0,0-.9-.3c-.3,0-.6-.1-.9-.1-.5,0-.8.1-.8.4s.1.3.3.4a6.14,6.14,0,0,0,1.1.5,3.58,3.58,0,0,1,1.1.6,2.65,2.65,0,0,1,.5.6A3.33,3.33,0,0,1,419.3,241.6Z" transform="translate(-68 -224.45)"/><path class="cls-3" d="M423.4,243.7c-2,0-3.1-1.1-3.1-3.4a4,4,0,0,1,.8-2.6,3,3,0,0,1,2.4-.9,4.21,4.21,0,0,1,2,.4l-.5,1.4c-.3-.1-.5-.2-.8-.3a2,2,0,0,0-.7-.1c-.9,0-1.4.7-1.4,2s.5,1.9,1.4,1.9a3.4,3.4,0,0,0,1-.1,3.55,3.55,0,0,0,.9-.4v1.5a3.55,3.55,0,0,1-.9.4A3.59,3.59,0,0,1,423.4,243.7Z" transform="translate(-68 -224.45)"/><path class="cls-3" d="M426.8,235.3c0-.6.3-.9,1-.9s1,.3,1,.9a.85.85,0,0,1-.2.6,1.17,1.17,0,0,1-.7.2C427.2,236.2,426.8,235.9,426.8,235.3Zm1.9,8.3h-1.8V237h1.8Z" transform="translate(-68 -224.45)"/><path class="cls-3" d="M436.6,243.6h-1.8v-3.8a1.8,1.8,0,0,0-.3-1.1.81.81,0,0,0-.8-.4,1.29,1.29,0,0,0-1.1.5,3.42,3.42,0,0,0-.3,1.7v3.1h-1.8V237h1.4l.2.8h.1a1.78,1.78,0,0,1,.8-.7,3.73,3.73,0,0,1,1.2-.2,2.2,2.2,0,0,1,1.7.6,2.44,2.44,0,0,1,.6,1.8v4.3Z" transform="translate(-68 -224.45)"/><path class="cls-3" d="M444.2,237v.9l-1,.3a1.69,1.69,0,0,1,.3,1,1.75,1.75,0,0,1-.7,1.6,3.94,3.94,0,0,1-2,.6h-.6a.55.55,0,0,0-.3.5c0,.3.3.4,1,.4H442a2.35,2.35,0,0,1,1.6.5,2,2,0,0,1,.6,1.4,1.9,1.9,0,0,1-1,1.8,5.55,5.55,0,0,1-2.8.6,4.06,4.06,0,0,1-2.1-.5,1.46,1.46,0,0,1-.7-1.3,1.28,1.28,0,0,1,.4-1,2,2,0,0,1,1.1-.6,1.76,1.76,0,0,1-.5-.4.73.73,0,0,1-.2-.6,1.07,1.07,0,0,1,.2-.6c.1-.1.4-.3.6-.5a1.78,1.78,0,0,1-.8-.7,2.13,2.13,0,0,1-.3-1.2,2.06,2.06,0,0,1,.7-1.7,3,3,0,0,1,2-.6h.7a2,2,0,0,1,.5.1Zm-5.1,7.5a.72.72,0,0,0,.4.6,1.64,1.64,0,0,0,1,.2,3.34,3.34,0,0,0,1.5-.3c.4-.2.5-.4.5-.7a.55.55,0,0,0-.3-.5,2.51,2.51,0,0,0-1-.1h-.9a1.88,1.88,0,0,0-.8.2A.82.82,0,0,0,439.1,244.5Zm.6-5.3a1.55,1.55,0,0,0,.2.8,1,1,0,0,0,1.4,0,1.88,1.88,0,0,0,.2-.8c0-.8-.3-1.2-1-1.2C440.1,238,439.7,238.4,439.7,239.2Z" transform="translate(-68 -224.45)"/><path class="cls-1" d="M77.8,271.2V264H79v6.1h3v1H77.8Z" transform="translate(-68 -224.45)"/><path class="cls-1" d="M87.9,268.5a2.82,2.82,0,0,1-.7,2.1,2.94,2.94,0,0,1-3.2.4,2.93,2.93,0,0,1-.9-1,3.34,3.34,0,0,1-.3-1.5,2.82,2.82,0,0,1,.7-2.1,2.49,2.49,0,0,1,1.9-.7,2.43,2.43,0,0,1,2.5,2.8Zm-3.9,0c0,1.2.5,1.9,1.4,1.9s1.4-.6,1.4-1.9-.5-1.9-1.4-1.9a1.1,1.1,0,0,0-1,.5A2.59,2.59,0,0,0,84,268.5Z" transform="translate(-68 -224.45)"/><path class="cls-1" d="M92,265.7h.6l-.1,1.1c-.2,0-.3-.1-.5-.1a1.37,1.37,0,0,0-1.1.4,1.59,1.59,0,0,0-.4,1.2v2.8H89.4v-5.4h.9l.2,1h.1a2.7,2.7,0,0,1,.7-.8A1,1,0,0,1,92,265.7Z" transform="translate(-68 -224.45)"/><path class="cls-1" d="M95.9,271.3a2.44,2.44,0,0,1-2.7-2.7,2.82,2.82,0,0,1,.7-2.1,2.55,2.55,0,0,1,3.5-.2,2.44,2.44,0,0,1,.6,1.8v.6H94.4a2.14,2.14,0,0,0,.4,1.2,1.25,1.25,0,0,0,1.1.4,2.77,2.77,0,0,0,.9-.1l.9-.3v.9a6.89,6.89,0,0,0-.8.3A2.51,2.51,0,0,1,95.9,271.3Zm-.2-4.8a1.22,1.22,0,0,0-.9.3,1.53,1.53,0,0,0-.4,1h2.5a1.49,1.49,0,0,0-.3-1A1.22,1.22,0,0,0,95.7,266.5Z" transform="translate(-68 -224.45)"/><path class="cls-1" d="M103.9,271.2h-1.2v-3.3a2,2,0,0,0-.2-.9.78.78,0,0,0-.7-.3,1.16,1.16,0,0,0-1,.4,2.65,2.65,0,0,0-.3,1.4v2.7H99.4v-5.4h.9l.2.7h.1a1.06,1.06,0,0,1,.7-.6,2.92,2.92,0,0,1,.9-.2,1.88,1.88,0,0,1,1.7.8h.1a1.34,1.34,0,0,1,.7-.6,3,3,0,0,1,1-.2,2,2,0,0,1,1.4.5,2.08,2.08,0,0,1,.4,1.5v3.5h-1.1v-3.3a2,2,0,0,0-.2-.9.78.78,0,0,0-.7-.3,1.16,1.16,0,0,0-1,.4,2.27,2.27,0,0,0-.3,1.3v2.8Z" transform="translate(-68 -224.45)"/><path class="cls-7" d="M235.5,266.1a2.06,2.06,0,0,1-.7,1.7,3.28,3.28,0,0,1-2.1.6h-.8v2.8h-.8V264H233C234.6,264,235.5,264.7,235.5,266.1Zm-3.7,1.6h.7a2.36,2.36,0,0,0,1.6-.4,1.46,1.46,0,0,0,0-2.2c-.3-.3-.8-.3-1.4-.3h-.9v2.9Z" transform="translate(-68 -224.45)"/><path class="cls-7" d="M239.3,265.7c.2,0,.5,0,.6.1l-.1.8c-.2,0-.4-.1-.6-.1a1.61,1.61,0,0,0-1.1.5,1.9,1.9,0,0,0-.5,1.3v2.9h-.8v-5.4h.7l.1,1h0a2.7,2.7,0,0,1,.7-.8A1.93,1.93,0,0,1,239.3,265.7Z" transform="translate(-68 -224.45)"/><path class="cls-7" d="M245.5,268.5a2.44,2.44,0,0,1-.7,2,2.67,2.67,0,0,1-1.8.7,2.77,2.77,0,0,1-1.3-.3,1.79,1.79,0,0,1-.9-1,3.65,3.65,0,0,1-.3-1.5,2.44,2.44,0,0,1,.7-2,2.67,2.67,0,0,1,1.8-.7,2.41,2.41,0,0,1,1.8.7A2.82,2.82,0,0,1,245.5,268.5Zm-4,0a2.54,2.54,0,0,0,.4,1.6,1.35,1.35,0,0,0,1.2.5,1.66,1.66,0,0,0,1.2-.5,2.36,2.36,0,0,0,.4-1.6,2.54,2.54,0,0,0-.4-1.6,1.35,1.35,0,0,0-1.2-.5,1.66,1.66,0,0,0-1.2.5A2.36,2.36,0,0,0,241.5,268.5Z" transform="translate(-68 -224.45)"/><path class="cls-7" d="M246.9,264.4c0-.2,0-.3.1-.4a.5.5,0,0,1,.6,0c.1.1.1.2.1.4s0,.3-.1.4a.37.37,0,0,1-.3.1c-.1,0-.3,0-.3-.1S246.9,264.6,246.9,264.4Zm.9,6.8H247v-5.4h.8Z" transform="translate(-68 -224.45)"/><path class="cls-7" d="M253.2,271.2v-3.5a1.49,1.49,0,0,0-.3-1,1.22,1.22,0,0,0-.9-.3,1.36,1.36,0,0,0-1.2.5,2.7,2.7,0,0,0-.4,1.5v2.8h-.8v-5.4h.7l.1.7h0a1.34,1.34,0,0,1,.7-.6,3,3,0,0,1,1-.2,2.46,2.46,0,0,1,1.5.5,1.72,1.72,0,0,1,.5,1.5v3.5Z" transform="translate(-68 -224.45)"/><path class="cls-7" d="M260.5,271.3a2.49,2.49,0,0,1-1.9-.7,2.72,2.72,0,0,1-.7-2,3.48,3.48,0,0,1,.6-2.1,2.19,2.19,0,0,1,3.3-.1,2.52,2.52,0,0,1,.6,1.7v.5h-3.7a2,2,0,0,0,.5,1.4,1.73,1.73,0,0,0,1.3.5,3.53,3.53,0,0,0,1.7-.4v.7a6.89,6.89,0,0,0-.8.3A2,2,0,0,1,260.5,271.3Zm-.2-4.9a1.16,1.16,0,0,0-1,.4,3.34,3.34,0,0,0-.5,1.2h2.8a2.13,2.13,0,0,0-.3-1.2A1.16,1.16,0,0,0,260.3,266.4Z" transform="translate(-68 -224.45)"/><path class="cls-7" d="M265.6,270.6h.4a.37.37,0,0,0,.3-.1v.6c-.1,0-.2.1-.4.1h-.5a1.43,1.43,0,0,1-1.6-1.6v-3.2H263V266l.8-.3.3-1.1h.5v1.2h1.6v.6h-1.6v3.1a1.17,1.17,0,0,0,.2.7A1.51,1.51,0,0,0,265.6,270.6Z" transform="translate(-68 -224.45)"/><path class="cls-7" d="M273.6,271.2v-3.5a1.49,1.49,0,0,0-.3-1,1.22,1.22,0,0,0-.9-.3,1.36,1.36,0,0,0-1.2.5,2.7,2.7,0,0,0-.4,1.5v2.8H270v-5.4h.7l.1.7h0a1.34,1.34,0,0,1,.7-.6,3,3,0,0,1,1-.2,2.46,2.46,0,0,1,1.5.5,1.72,1.72,0,0,1,.5,1.5v3.5Z" transform="translate(-68 -224.45)"/><path class="cls-7" d="M276.9,265.8v3.5a1.49,1.49,0,0,0,.3,1,1.22,1.22,0,0,0,.9.3,1.36,1.36,0,0,0,1.2-.5,2.7,2.7,0,0,0,.4-1.5v-2.8h.8v5.4h-.7l-.1-.7h0a1.34,1.34,0,0,1-.7.6,3,3,0,0,1-1,.2,2.25,2.25,0,0,1-1.5-.5,1.72,1.72,0,0,1-.5-1.5v-3.5Z" transform="translate(-68 -224.45)"/><path class="cls-7" d="M285.9,271.2v-3.5a1.49,1.49,0,0,0-.3-1,1.22,1.22,0,0,0-.9-.3,1.36,1.36,0,0,0-1.2.5,2.7,2.7,0,0,0-.4,1.5v2.8h-.8v-5.4h.7l.1.7h0a1.34,1.34,0,0,1,.7-.6,3,3,0,0,1,1-.2,2.46,2.46,0,0,1,1.5.5,1.72,1.72,0,0,1,.5,1.5v3.5Z" transform="translate(-68 -224.45)"/><path class="cls-7" d="M290.5,271.3a2.14,2.14,0,0,1-1.8-.7,3.17,3.17,0,0,1-.6-2,3.28,3.28,0,0,1,.6-2.1,2.14,2.14,0,0,1,1.8-.7,2.2,2.2,0,0,1,.8.1c.3.1.5.1.6.2l-.2.7c-.2-.1-.4-.1-.6-.2a1.27,1.27,0,0,0-.6-.1c-1.1,0-1.6.7-1.6,2.1a2.08,2.08,0,0,0,.4,1.5,1.66,1.66,0,0,0,1.2.5,3.93,3.93,0,0,0,1.4-.3v.7A2.9,2.9,0,0,1,290.5,271.3Z" transform="translate(-68 -224.45)"/><path class="cls-7" d="M388,269.3a1.8,1.8,0,0,1-.7,1.5,2.85,2.85,0,0,1-1.9.5,5.62,5.62,0,0,1-2-.3v-.8c.3.1.6.2,1,.3a3.75,3.75,0,0,0,1,.1,1.74,1.74,0,0,0,1.2-.3,1.27,1.27,0,0,0,.4-.9c0-.2,0-.5-.1-.6a1,1,0,0,0-.5-.4c-.2-.1-.6-.3-1.1-.5a3,3,0,0,1-1.4-.8,1.84,1.84,0,0,1-.4-1.3,1.49,1.49,0,0,1,.6-1.3,2.77,2.77,0,0,1,1.6-.5,4.48,4.48,0,0,1,2,.4l-.3.7a5.93,5.93,0,0,0-1.7-.4,1.49,1.49,0,0,0-1,.3,1.23,1.23,0,0,0-.4.8c0,.2,0,.5.1.6a1.08,1.08,0,0,0,.5.4,3.36,3.36,0,0,0,1,.4,3.88,3.88,0,0,1,1.5.9A1.22,1.22,0,0,1,388,269.3Z" transform="translate(-68 -224.45)"/><path class="cls-7" d="M391.6,271.3a2.49,2.49,0,0,1-1.9-.7,2.72,2.72,0,0,1-.7-2,3.48,3.48,0,0,1,.6-2.1,2.14,2.14,0,0,1,1.7-.8,1.86,1.86,0,0,1,1.6.7,2.52,2.52,0,0,1,.6,1.7v.5h-3.7a2,2,0,0,0,.5,1.4,1.73,1.73,0,0,0,1.3.5,3.53,3.53,0,0,0,1.7-.4v.7a6.89,6.89,0,0,0-.8.3A2,2,0,0,1,391.6,271.3Zm-.2-4.9a1.16,1.16,0,0,0-1,.4,2.2,2.2,0,0,0-.5,1.2h2.8a2.13,2.13,0,0,0-.3-1.2A1.16,1.16,0,0,0,391.4,266.4Z" transform="translate(-68 -224.45)"/><path class="cls-7" d="M401.8,271.2v-3.5a1.69,1.69,0,0,0-.3-1,.83.83,0,0,0-.8-.3,1.25,1.25,0,0,0-1.1.4,2.23,2.23,0,0,0-.4,1.3v3h-.8v-3.5a1.69,1.69,0,0,0-.3-1c-.2-.3-.5-.3-.9-.3a1.29,1.29,0,0,0-1.1.5,2.7,2.7,0,0,0-.4,1.5v2.8H395v-5.4h.7l.1.7h0a1.7,1.7,0,0,1,.6-.6,2.92,2.92,0,0,1,.9-.2,1.52,1.52,0,0,1,1.6.9h0a2.34,2.34,0,0,1,.7-.7,1.64,1.64,0,0,1,1-.2,2,2,0,0,1,1.4.5,2.07,2.07,0,0,1,.5,1.5v3.5h-.7Z" transform="translate(-68 -224.45)"/><path class="cls-7" d="M406.8,271.3a3.55,3.55,0,0,1-1-.2,1.34,1.34,0,0,1-.7-.6H405c0,.3.1.6.1.9v2.2h-.8v-7.8h.7l.1.7h0a1.87,1.87,0,0,1,.7-.6,2.51,2.51,0,0,1,1-.2,1.75,1.75,0,0,1,1.6.7,3.17,3.17,0,0,1,.6,2,2.81,2.81,0,0,1-.6,2A1.8,1.8,0,0,1,406.8,271.3Zm-.1-4.9a1.66,1.66,0,0,0-1.2.5,2,2,0,0,0-.4,1.4v.2a2.2,2.2,0,0,0,.4,1.6,1.66,1.66,0,0,0,1.2.5,1.25,1.25,0,0,0,1.1-.6,2.41,2.41,0,0,0,.4-1.5,2.08,2.08,0,0,0-.4-1.5A1.38,1.38,0,0,0,406.7,266.4Z" transform="translate(-68 -224.45)"/><path class="cls-7" d="M412.7,271.3a2.49,2.49,0,0,1-1.9-.7,2.72,2.72,0,0,1-.7-2,3.48,3.48,0,0,1,.6-2.1,2.14,2.14,0,0,1,1.7-.8,1.86,1.86,0,0,1,1.6.7,2.52,2.52,0,0,1,.6,1.7v.5H411a2,2,0,0,0,.5,1.4,1.73,1.73,0,0,0,1.3.5,3.53,3.53,0,0,0,1.7-.4v.7a6.89,6.89,0,0,0-.8.3A3.55,3.55,0,0,1,412.7,271.3Zm-.2-4.9a1.16,1.16,0,0,0-1,.4,2.2,2.2,0,0,0-.5,1.2h2.8a2.13,2.13,0,0,0-.3-1.2A1.16,1.16,0,0,0,412.5,266.4Z" transform="translate(-68 -224.45)"/><path class="cls-7" d="M418.5,265.7c.2,0,.5,0,.6.1l-.1.8c-.2,0-.4-.1-.6-.1a1.61,1.61,0,0,0-1.1.5,2.11,2.11,0,0,0-.5,1.3v2.9H416v-5.4h.7l.1,1h0a2.7,2.7,0,0,1,.7-.8A1.69,1.69,0,0,1,418.5,265.7Z" transform="translate(-68 -224.45)"/><path class="cls-7" d="M426.2,269.7a1.43,1.43,0,0,1-.6,1.2,2.54,2.54,0,0,1-1.6.4,4,4,0,0,1-1.7-.3v-.8c.3.1.5.2.8.3a2.77,2.77,0,0,0,.9.1,3,3,0,0,0,1-.2c.3-.1.3-.3.3-.6a.55.55,0,0,0-.3-.5,6.14,6.14,0,0,0-1.1-.5,3.83,3.83,0,0,1-1.1-.5,1.21,1.21,0,0,1-.5-.5,1.42,1.42,0,0,1-.2-.6,1.23,1.23,0,0,1,.5-1,2.7,2.7,0,0,1,1.5-.4,3.53,3.53,0,0,1,1.7.4l-.3.7a4,4,0,0,0-1.5-.3,2,2,0,0,0-.9.2.55.55,0,0,0-.3.5.6.6,0,0,0,.1.4,1.38,1.38,0,0,0,.4.3c.2.1.5.2.9.4a3.75,3.75,0,0,1,1.3.7C426.1,269.1,426.2,269.4,426.2,269.7Z" transform="translate(-68 -224.45)"/><path class="cls-7" d="M430.8,271.2l-.2-.8h0c-.3.3-.5.6-.8.7a3,3,0,0,1-1,.2,1.59,1.59,0,0,1-1.2-.4,1.66,1.66,0,0,1-.5-1.2c0-1.1.9-1.6,2.6-1.7h.9v-.3a1.06,1.06,0,0,0-1.2-1.2,3.07,3.07,0,0,0-1.5.4l-.2-.6a3.18,3.18,0,0,1,.9-.3,2.77,2.77,0,0,1,.9-.1,2,2,0,0,1,1.4.4,1.81,1.81,0,0,1,.5,1.4v3.7h-.6Zm-1.9-.6a1.41,1.41,0,0,0,1.6-1.6v-.5h-.8a2.65,2.65,0,0,0-1.4.3,1,1,0,0,0,.6,1.8Z" transform="translate(-68 -224.45)"/><path class="cls-7" d="M435.5,271.3a3.55,3.55,0,0,1-1-.2,1.34,1.34,0,0,1-.7-.6h-.1c0,.3.1.6.1.9v2.2H433v-7.8h.7l.1.7h0a1.87,1.87,0,0,1,.7-.6,2.51,2.51,0,0,1,1-.2,1.75,1.75,0,0,1,1.6.7,3.17,3.17,0,0,1,.6,2,2.81,2.81,0,0,1-.6,2A1.7,1.7,0,0,1,435.5,271.3Zm-.1-4.9a1.66,1.66,0,0,0-1.2.5,2,2,0,0,0-.4,1.4v.2a2.2,2.2,0,0,0,.4,1.6,1.66,1.66,0,0,0,1.2.5,1.25,1.25,0,0,0,1.1-.6,2.41,2.41,0,0,0,.4-1.5,2.08,2.08,0,0,0-.4-1.5A1.15,1.15,0,0,0,435.4,266.4Z" transform="translate(-68 -224.45)"/><path class="cls-7" d="M439.1,264.4c0-.2,0-.3.1-.4a.5.5,0,0,1,.6,0c.1.1.1.2.1.4s0,.3-.1.4a.37.37,0,0,1-.3.1c-.1,0-.3,0-.3-.1S439.1,264.6,439.1,264.4Zm.9,6.8h-.8v-5.4h.8Z" transform="translate(-68 -224.45)"/><path class="cls-7" d="M444,271.3a2.49,2.49,0,0,1-1.9-.7,2.72,2.72,0,0,1-.7-2,3.48,3.48,0,0,1,.6-2.1,2.14,2.14,0,0,1,1.7-.8,1.86,1.86,0,0,1,1.6.7,2.52,2.52,0,0,1,.6,1.7v.5h-3.7a2,2,0,0,0,.5,1.4,1.73,1.73,0,0,0,1.3.5,3.53,3.53,0,0,0,1.7-.4v.7a6.89,6.89,0,0,0-.8.3A2.92,2.92,0,0,1,444,271.3Zm-.3-4.9a1.16,1.16,0,0,0-1,.4,2.2,2.2,0,0,0-.5,1.2H445a2.13,2.13,0,0,0-.3-1.2A1.05,1.05,0,0,0,443.7,266.4Z" transform="translate(-68 -224.45)"/><path class="cls-7" d="M451,271.2v-3.5a1.49,1.49,0,0,0-.3-1,1.22,1.22,0,0,0-.9-.3,1.36,1.36,0,0,0-1.2.5,2.7,2.7,0,0,0-.4,1.5v2.8h-.8v-5.4h.7l.1.7h0a1.34,1.34,0,0,1,.7-.6,3,3,0,0,1,1-.2,2.46,2.46,0,0,1,1.5.5,1.72,1.72,0,0,1,.5,1.5v3.5Z" transform="translate(-68 -224.45)"/><path class="cls-1" d="M77.8,299.5v-7.1H79v7.1Z" transform="translate(-68 -224.45)"/><path class="cls-1" d="M83.5,299.6a1.86,1.86,0,0,1-1.6-.7h-.1a3.78,3.78,0,0,0,.1.8v2.2H80.8v-7.8h.9c0,.1.1.3.2.7H82a1.94,1.94,0,0,1,1.6-.8,1.86,1.86,0,0,1,1.6.7,4,4,0,0,1,0,4.2A2.06,2.06,0,0,1,83.5,299.6Zm-.3-4.6a1.05,1.05,0,0,0-1,.4,2.27,2.27,0,0,0-.3,1.3v.2a2.42,2.42,0,0,0,.3,1.4,1.23,1.23,0,0,0,1.9-.1,3.42,3.42,0,0,0,0-2.8A1,1,0,0,0,83.2,295Z" transform="translate(-68 -224.45)"/><path class="cls-1" d="M90.6,298a1.43,1.43,0,0,1-.6,1.2,2.67,2.67,0,0,1-1.7.4,4,4,0,0,1-1.7-.3v-1a3.92,3.92,0,0,0,1.8.4c.7,0,1.1-.2,1.1-.6,0-.1,0-.3-.1-.3s-.2-.2-.4-.3a4.88,4.88,0,0,0-.7-.3,5,5,0,0,1-1.3-.7c-.3-.2-.3-.6-.3-.9a1.25,1.25,0,0,1,.6-1.1,2.41,2.41,0,0,1,1.5-.4,3.92,3.92,0,0,1,1.8.4l-.4.9a5.62,5.62,0,0,0-1.5-.4c-.6,0-.9.2-.9.5a.52.52,0,0,0,.2.4,4.34,4.34,0,0,0,1,.5,4.61,4.61,0,0,1,1,.5c.2.2.4.3.4.5S90.6,297.7,90.6,298Z" transform="translate(-68 -224.45)"/><path class="cls-1" d="M95.7,299.5l-.2-.7h-.1a2,2,0,0,1-.7.6,1.64,1.64,0,0,1-1,.2,2.25,2.25,0,0,1-1.5-.5,1.72,1.72,0,0,1-.5-1.5v-3.5H93v3.3a1.22,1.22,0,0,0,.3.9,1,1,0,0,0,.8.3,1.37,1.37,0,0,0,1.1-.4c.3-.3.3-.8.3-1.4v-2.7h1.2v5.4Z" transform="translate(-68 -224.45)"/><path class="cls-1" d="M102.8,299.5h-1.2v-3.3a2,2,0,0,0-.2-.9.78.78,0,0,0-.7-.3,1.16,1.16,0,0,0-1,.4,2.65,2.65,0,0,0-.3,1.4v2.7H98.3v-5.4h.9l.2.7h.1a1.06,1.06,0,0,1,.7-.6,2.92,2.92,0,0,1,.9-.2,1.88,1.88,0,0,1,1.7.8h.1a1.34,1.34,0,0,1,.7-.6,3,3,0,0,1,1-.2,2,2,0,0,1,1.4.5,2.08,2.08,0,0,1,.4,1.5v3.5H105v-3.3a2,2,0,0,0-.2-.9.78.78,0,0,0-.7-.3,1.16,1.16,0,0,0-1,.4,2.27,2.27,0,0,0-.3,1.3Z" transform="translate(-68 -224.45)"/><path class="cls-7" d="M230.9,299.5v-7.1h.8v7.1Z" transform="translate(-68 -224.45)"/><path class="cls-7" d="M237.3,299.5V296a1.49,1.49,0,0,0-.3-1,1.22,1.22,0,0,0-.9-.3,1.36,1.36,0,0,0-1.2.5,2.7,2.7,0,0,0-.4,1.5v2.8h-.8v-5.4h.7l.1.7h0a1.34,1.34,0,0,1,.7-.6,3,3,0,0,1,1-.2,2.46,2.46,0,0,1,1.5.5,1.72,1.72,0,0,1,.5,1.5v3.5Z" transform="translate(-68 -224.45)"/><path class="cls-7" d="M241.5,299h.4a.37.37,0,0,0,.3-.1v.6c-.1,0-.2.1-.4.1h-.5a1.43,1.43,0,0,1-1.6-1.6v-3.2H239v-.4l.8-.3.3-1.1h.5v1.2h1.6v.6h-1.6v3.1a1.17,1.17,0,0,0,.2.7A1.18,1.18,0,0,0,241.5,299Z" transform="translate(-68 -224.45)"/><path class="cls-7" d="M245.5,299.6a2.49,2.49,0,0,1-1.9-.7,2.72,2.72,0,0,1-.7-2,3.48,3.48,0,0,1,.6-2.1,2.19,2.19,0,0,1,3.3-.1,2.52,2.52,0,0,1,.6,1.7v.5h-3.7a2,2,0,0,0,.5,1.4,1.73,1.73,0,0,0,1.3.5,3.53,3.53,0,0,0,1.7-.4v.7a6.89,6.89,0,0,0-.8.3A2,2,0,0,1,245.5,299.6Zm-.2-4.8a1.16,1.16,0,0,0-1,.4,3.34,3.34,0,0,0-.5,1.2h2.8a2.13,2.13,0,0,0-.3-1.2A1.16,1.16,0,0,0,245.3,294.8Z" transform="translate(-68 -224.45)"/><path class="cls-7" d="M253.3,294.2v.5l-1,.1a.76.76,0,0,1,.2.4c0,.1.1.4.1.6a2.11,2.11,0,0,1-.5,1.3,1.72,1.72,0,0,1-1.5.5h-.4c-.3.2-.5.4-.5.7,0,.1.1.3.2.3a3.54,3.54,0,0,0,.6.1h.9a1.7,1.7,0,0,1,1.3.4,1.43,1.43,0,0,1,.5,1.1,1.62,1.62,0,0,1-.7,1.4,3.28,3.28,0,0,1-2.1.5,2.54,2.54,0,0,1-1.6-.4,1.25,1.25,0,0,1-.6-1.1,1.14,1.14,0,0,1,.3-.8,1.93,1.93,0,0,1,.9-.5c-.1-.1-.3-.2-.3-.3a4.33,4.33,0,0,1-.1-.5.76.76,0,0,1,.2-.5,2.18,2.18,0,0,1,.5-.4,1.34,1.34,0,0,1-.7-.6,1.61,1.61,0,0,1-.3-.9,2.17,2.17,0,0,1,.5-1.4,1.72,1.72,0,0,1,1.5-.5,2.2,2.2,0,0,1,.8.1h1.8Zm-4.3,6.2a.75.75,0,0,0,.4.7,1.64,1.64,0,0,0,1,.2,2.81,2.81,0,0,0,1.5-.3,1,1,0,0,0,.5-.8.6.6,0,0,0-.3-.6,2.15,2.15,0,0,0-1-.2h-1a1.22,1.22,0,0,0-.9.3A.84.84,0,0,0,249,300.4Zm.4-4.5c0,.4.1.7.3.8a1.9,1.9,0,0,0,.9.3,1.2,1.2,0,1,0,0-2.4,1.22,1.22,0,0,0-.9.3A1.49,1.49,0,0,0,249.4,295.9Z" transform="translate(-68 -224.45)"/><path class="cls-7" d="M256.6,299.6a2.49,2.49,0,0,1-1.9-.7,2.72,2.72,0,0,1-.7-2,3.48,3.48,0,0,1,.6-2.1,2.19,2.19,0,0,1,3.3-.1,2.52,2.52,0,0,1,.6,1.7v.5h-3.7a2,2,0,0,0,.5,1.4,1.73,1.73,0,0,0,1.3.5,3.53,3.53,0,0,0,1.7-.4v.7a6.89,6.89,0,0,0-.8.3A2,2,0,0,1,256.6,299.6Zm-.2-4.8a1.16,1.16,0,0,0-1,.4,3.34,3.34,0,0,0-.5,1.2h2.8a2.13,2.13,0,0,0-.3-1.2A1.16,1.16,0,0,0,256.4,294.8Z" transform="translate(-68 -224.45)"/><path class="cls-7" d="M262.4,294.1c.2,0,.5,0,.6.1l-.1.8c-.2,0-.4-.1-.6-.1a1.61,1.61,0,0,0-1.1.5,1.9,1.9,0,0,0-.5,1.3v2.9H260v-5.4h.7l.1,1h0a2.7,2.7,0,0,1,.7-.8A1.61,1.61,0,0,1,262.4,294.1Z" transform="translate(-68 -224.45)"/><path class="cls-7" d="M270.3,299.5V296a1.49,1.49,0,0,0-.3-1,1.22,1.22,0,0,0-.9-.3,1.36,1.36,0,0,0-1.2.5,2.7,2.7,0,0,0-.4,1.5v2.8h-.8v-7.6h.8v3h0a1.34,1.34,0,0,1,.7-.6,3,3,0,0,1,1-.2,2.25,2.25,0,0,1,1.5.5,1.72,1.72,0,0,1,.5,1.5v3.5h-.9Z" transform="translate(-68 -224.45)"/><path class="cls-7" d="M275.1,299.6a2.49,2.49,0,0,1-1.9-.7,2.72,2.72,0,0,1-.7-2,3.48,3.48,0,0,1,.6-2.1,2.19,2.19,0,0,1,3.3-.1,2.52,2.52,0,0,1,.6,1.7v.5h-3.7a2,2,0,0,0,.5,1.4,1.73,1.73,0,0,0,1.3.5,3.53,3.53,0,0,0,1.7-.4v.7a6.89,6.89,0,0,0-.8.3A2.39,2.39,0,0,1,275.1,299.6Zm-.3-4.8a1.16,1.16,0,0,0-1,.4,3.34,3.34,0,0,0-.5,1.2h2.8a2.13,2.13,0,0,0-.3-1.2A1.05,1.05,0,0,0,274.8,294.8Z" transform="translate(-68 -224.45)"/><path class="cls-7" d="M282.1,299.5V296a1.49,1.49,0,0,0-.3-1,1.22,1.22,0,0,0-.9-.3,1.36,1.36,0,0,0-1.2.5,2.7,2.7,0,0,0-.4,1.5v2.8h-.8v-5.4h.7l.1.7h0a1.34,1.34,0,0,1,.7-.6,3,3,0,0,1,1-.2,2.46,2.46,0,0,1,1.5.5,1.72,1.72,0,0,1,.5,1.5v3.5Z" transform="translate(-68 -224.45)"/><path class="cls-7" d="M288.2,298.8h0a2.14,2.14,0,0,1-1.7.8,1.86,1.86,0,0,1-1.6-.7,3.17,3.17,0,0,1-.6-2,3.48,3.48,0,0,1,.6-2.1,1.86,1.86,0,0,1,1.6-.7,2.14,2.14,0,0,1,1.7.8h.1v-3h.8v7.6h-.7Zm-1.6.1a1.36,1.36,0,0,0,1.2-.5,2.7,2.7,0,0,0,.4-1.5v-.2a2.2,2.2,0,0,0-.4-1.6,1.66,1.66,0,0,0-1.2-.5,1.25,1.25,0,0,0-1.1.6,2.54,2.54,0,0,0-.4,1.6,2.08,2.08,0,0,0,.4,1.5A1.52,1.52,0,0,0,286.6,298.9Z" transform="translate(-68 -224.45)"/><path class="cls-7" d="M293.1,294.1c.2,0,.5,0,.6.1l-.1.8c-.2,0-.4-.1-.6-.1a1.61,1.61,0,0,0-1.1.5,1.9,1.9,0,0,0-.5,1.3v2.9h-.8v-5.4h.7l.1,1h0a2.7,2.7,0,0,1,.7-.8A1.93,1.93,0,0,1,293.1,294.1Z" transform="translate(-68 -224.45)"/><path class="cls-7" d="M297,299.6a2.49,2.49,0,0,1-1.9-.7,2.72,2.72,0,0,1-.7-2,3.48,3.48,0,0,1,.6-2.1,2.19,2.19,0,0,1,3.3-.1,2.52,2.52,0,0,1,.6,1.7v.5h-3.7a2,2,0,0,0,.5,1.4,1.73,1.73,0,0,0,1.3.5,3.53,3.53,0,0,0,1.7-.4v.7a6.89,6.89,0,0,0-.8.3A2,2,0,0,1,297,299.6Zm-.2-4.8a1.16,1.16,0,0,0-1,.4,3.34,3.34,0,0,0-.5,1.2h2.8a2.13,2.13,0,0,0-.3-1.2A1.16,1.16,0,0,0,296.8,294.8Z" transform="translate(-68 -224.45)"/><path class="cls-7" d="M302.8,294.1c.2,0,.5,0,.6.1l-.1.8c-.2,0-.4-.1-.6-.1a1.61,1.61,0,0,0-1.1.5,1.9,1.9,0,0,0-.5,1.3v2.9h-.8v-5.4h.7l.1,1h0a2.7,2.7,0,0,1,.7-.8A2.24,2.24,0,0,1,302.8,294.1Z" transform="translate(-68 -224.45)"/><path class="cls-7" d="M304.4,292.7c0-.2,0-.3.1-.4a.5.5,0,0,1,.6,0c.1.1.1.2.1.4s0,.3-.1.4a.5.5,0,0,1-.6,0C304.4,293,304.4,292.9,304.4,292.7Zm.9,6.8h-.8v-5.4h.8Z" transform="translate(-68 -224.45)"/><path class="cls-7" d="M308.7,299h.4a.37.37,0,0,0,.3-.1v.6c-.1,0-.2.1-.4.1h-.5a1.43,1.43,0,0,1-1.6-1.6v-3.2h-.8v-.4l.8-.3.3-1.1h.5v1.2h1.6v.6h-1.6v3.1a1.17,1.17,0,0,0,.2.7A1,1,0,0,0,308.7,299Z" transform="translate(-68 -224.45)"/><path class="cls-7" d="M389.6,299.5h-.9l-3.9-6h0a12.75,12.75,0,0,1,.1,1.9v4.1H384v-7.1h.9l3.9,6h0v-5.9h.8v7Z" transform="translate(-68 -224.45)"/><path class="cls-7" d="M396.1,296.8a2.44,2.44,0,0,1-.7,2,2.67,2.67,0,0,1-1.8.7,2.77,2.77,0,0,1-1.3-.3,1.79,1.79,0,0,1-.9-1,3.65,3.65,0,0,1-.3-1.5,2.44,2.44,0,0,1,.7-2,2.67,2.67,0,0,1,1.8-.7,2.41,2.41,0,0,1,1.8.7A3.77,3.77,0,0,1,396.1,296.8Zm-4.1,0a2.54,2.54,0,0,0,.4,1.6,1.35,1.35,0,0,0,1.2.5,1.66,1.66,0,0,0,1.2-.5,3.4,3.4,0,0,0,0-3.2,1.35,1.35,0,0,0-1.2-.5,1.66,1.66,0,0,0-1.2.5A2.54,2.54,0,0,0,392,296.8Z" transform="translate(-68 -224.45)"/><path class="cls-7" d="M401.1,299.5V296a1.49,1.49,0,0,0-.3-1,1.22,1.22,0,0,0-.9-.3,1.36,1.36,0,0,0-1.2.5,2.7,2.7,0,0,0-.4,1.5v2.8h-.8v-5.4h.7l.1.7h0a1.34,1.34,0,0,1,.7-.6,3,3,0,0,1,1-.2,2.46,2.46,0,0,1,1.5.5,1.72,1.72,0,0,1,.5,1.5v3.5Z" transform="translate(-68 -224.45)"/><path class="cls-7" d="M409.9,298.8h0a2.14,2.14,0,0,1-1.7.8,1.86,1.86,0,0,1-1.6-.7,3.17,3.17,0,0,1-.6-2,3.48,3.48,0,0,1,.6-2.1,1.86,1.86,0,0,1,1.6-.7,2.14,2.14,0,0,1,1.7.8h.1v-3h.8v7.6H410Zm-1.7.1a1.36,1.36,0,0,0,1.2-.5,2.7,2.7,0,0,0,.4-1.5v-.2a2.2,2.2,0,0,0-.4-1.6,1.66,1.66,0,0,0-1.2-.5,1.25,1.25,0,0,0-1.1.6,2.54,2.54,0,0,0-.4,1.6,2.08,2.08,0,0,0,.4,1.5A1.52,1.52,0,0,0,408.2,298.9Z" transform="translate(-68 -224.45)"/><path class="cls-7" d="M415.6,299.5l-.2-.8h0c-.3.3-.5.6-.8.7a3,3,0,0,1-1,.2,1.59,1.59,0,0,1-1.2-.4,1.66,1.66,0,0,1-.5-1.2c0-1.1.9-1.6,2.6-1.7h.9V296a1.06,1.06,0,0,0-1.2-1.2,3.07,3.07,0,0,0-1.5.4l-.2-.6a3.18,3.18,0,0,1,.9-.3,2.77,2.77,0,0,1,.9-.1,2,2,0,0,1,1.4.4,1.81,1.81,0,0,1,.5,1.4v3.7h-.6Zm-1.8-.5a1.41,1.41,0,0,0,1.6-1.6v-.5h-.8a2.65,2.65,0,0,0-1.4.3,1,1,0,0,0-.1,1.5A.78.78,0,0,0,413.8,299Z" transform="translate(-68 -224.45)"/><path class="cls-7" d="M420.4,299.6a3.55,3.55,0,0,1-1-.2,1.34,1.34,0,0,1-.7-.6h-.1c0,.3.1.6.1.9v2.2h-.8v-7.8h.7l.1.7h0a1.87,1.87,0,0,1,.7-.6,2.51,2.51,0,0,1,1-.2,1.75,1.75,0,0,1,1.6.7,3.17,3.17,0,0,1,.6,2,2.81,2.81,0,0,1-.6,2A1.62,1.62,0,0,1,420.4,299.6Zm-.1-4.8a1.66,1.66,0,0,0-1.2.5,2,2,0,0,0-.4,1.4v.2a2.2,2.2,0,0,0,.4,1.6,1.66,1.66,0,0,0,1.2.5,1.25,1.25,0,0,0,1.1-.6,2.41,2.41,0,0,0,.4-1.5,2.08,2.08,0,0,0-.4-1.5A1.16,1.16,0,0,0,420.3,294.8Z" transform="translate(-68 -224.45)"/><path class="cls-7" d="M424,292.7c0-.2,0-.3.1-.4a.5.5,0,0,1,.6,0c.1.1.1.2.1.4s0,.3-.1.4a.37.37,0,0,1-.3.1c-.1,0-.3,0-.3-.1S424,292.9,424,292.7Zm.8,6.8H424v-5.4h.8Z" transform="translate(-68 -224.45)"/><path class="cls-7" d="M429,294.1a1.86,1.86,0,0,1,1.6.7,3.17,3.17,0,0,1,.6,2,3,3,0,0,1-.6,2,1.86,1.86,0,0,1-1.6.7,3.55,3.55,0,0,1-1-.2,1.34,1.34,0,0,1-.7-.6h-.1l-.2.7h-.6v-7.6h.8v2.9h0A3.51,3.51,0,0,1,429,294.1Zm-.1.7a1.36,1.36,0,0,0-1.2.5,3.1,3.1,0,0,0-.4,1.6,2.36,2.36,0,0,0,.4,1.6,1.66,1.66,0,0,0,1.2.5,1.29,1.29,0,0,0,1.1-.5,3.1,3.1,0,0,0,.4-1.6,2.54,2.54,0,0,0-.4-1.6A1.17,1.17,0,0,0,428.9,294.8Z" transform="translate(-68 -224.45)"/><path class="cls-7" d="M433.4,294.2v3.5a1.49,1.49,0,0,0,.3,1,1.22,1.22,0,0,0,.9.3,1.36,1.36,0,0,0,1.2-.5,2.08,2.08,0,0,0,.4-1.5v-2.8h.8v5.4h-.7l-.1-.7h0a1.34,1.34,0,0,1-.7.6,3,3,0,0,1-1,.2,2.25,2.25,0,0,1-1.5-.5,2.07,2.07,0,0,1-.5-1.5v-3.5Z" transform="translate(-68 -224.45)"/><path class="cls-7" d="M442.3,298.1a1.43,1.43,0,0,1-.6,1.2,2.54,2.54,0,0,1-1.6.4,4,4,0,0,1-1.7-.3v-.8c.3.1.5.2.8.3a2.77,2.77,0,0,0,.9.1,3,3,0,0,0,1-.2c.3-.1.3-.3.3-.6a.55.55,0,0,0-.3-.5,6.14,6.14,0,0,0-1.1-.5,3.83,3.83,0,0,1-1.1-.5,1.21,1.21,0,0,1-.5-.5,1.42,1.42,0,0,1-.2-.6,1.23,1.23,0,0,1,.5-1,2.7,2.7,0,0,1,1.5-.4,3.53,3.53,0,0,1,1.7.4l-.3.7a4,4,0,0,0-1.5-.3,2,2,0,0,0-.9.2.55.55,0,0,0-.3.5.6.6,0,0,0,.1.4,1.38,1.38,0,0,0,.4.3c.2.1.5.2.9.4a3.75,3.75,0,0,1,1.3.7C442.2,297.4,442.3,297.7,442.3,298.1Z" transform="translate(-68 -224.45)"/><path class="cls-1" d="M83.6,324.2a3.34,3.34,0,0,1-1,2.7,4.1,4.1,0,0,1-2.8.9h-2v-7.1H80a4,4,0,0,1,2.7.9A3.2,3.2,0,0,1,83.6,324.2Zm-1.2.1c0-1.7-.8-2.6-2.4-2.6H79v5.2h.8A2.28,2.28,0,0,0,82.4,324.3Z" transform="translate(-68 -224.45)"/><path class="cls-1" d="M89.8,325.2a2.82,2.82,0,0,1-.7,2.1,2.94,2.94,0,0,1-3.2.4,2.93,2.93,0,0,1-.9-1,3.34,3.34,0,0,1-.3-1.5,2.82,2.82,0,0,1,.7-2.1,2.49,2.49,0,0,1,1.9-.7,2.43,2.43,0,0,1,2.5,2.8Zm-3.9,0c0,1.2.5,1.9,1.4,1.9s1.4-.6,1.4-1.9-.5-1.9-1.4-1.9a1.1,1.1,0,0,0-1,.5A2.59,2.59,0,0,0,85.9,325.2Z" transform="translate(-68 -224.45)"/><path class="cls-1" d="M92.3,327.9H91.2v-7.6h1.1Z" transform="translate(-68 -224.45)"/><path class="cls-1" d="M98.7,325.2a2.82,2.82,0,0,1-.7,2.1,2.27,2.27,0,0,1-1.8.7,2.5,2.5,0,0,1-1.3-.3,2.93,2.93,0,0,1-.9-1,3.34,3.34,0,0,1-.3-1.5,2.82,2.82,0,0,1,.7-2.1,2.49,2.49,0,0,1,1.9-.7,2.56,2.56,0,0,1,1.9.8C98.7,323.7,98.7,324.3,98.7,325.2Zm-3.9,0c0,1.2.5,1.9,1.4,1.9s1.4-.6,1.4-1.9-.5-1.9-1.4-1.9a1.1,1.1,0,0,0-1,.5A2.59,2.59,0,0,0,94.8,325.2Z" transform="translate(-68 -224.45)"/><path class="cls-1" d="M102.8,322.4h.6l-.1,1.1c-.2,0-.3-.1-.5-.1a1.37,1.37,0,0,0-1.1.4,1.59,1.59,0,0,0-.4,1.2v2.8h-1.1v-5.4h.9l.2,1h.1a2.7,2.7,0,0,1,.7-.8A1,1,0,0,1,102.8,322.4Z" transform="translate(-68 -224.45)"/><path class="cls-7" d="M235,326a1.8,1.8,0,0,1-.7,1.5,2.85,2.85,0,0,1-1.9.5,5.62,5.62,0,0,1-2-.3v-.8c.3.1.6.2,1,.3a3.75,3.75,0,0,0,1,.1,1.74,1.74,0,0,0,1.2-.3,1.27,1.27,0,0,0,.4-.9c0-.2,0-.5-.1-.6a2.18,2.18,0,0,0-.5-.4c-.2-.1-.6-.3-1.1-.5a3,3,0,0,1-1.4-.8,1.84,1.84,0,0,1-.4-1.3,1.49,1.49,0,0,1,.6-1.3,2.77,2.77,0,0,1,1.6-.5,4.48,4.48,0,0,1,2,.4l-.3.7a5.93,5.93,0,0,0-1.7-.4,1.49,1.49,0,0,0-1,.3,1.23,1.23,0,0,0-.4.8c0,.2,0,.5.1.6a1.08,1.08,0,0,0,.5.4,5.13,5.13,0,0,0,1,.4,3.88,3.88,0,0,1,1.5.9A2.28,2.28,0,0,1,235,326Z" transform="translate(-68 -224.45)"/><path class="cls-7" d="M239.6,327.9l-.2-.8h0c-.3.3-.5.6-.8.7a3,3,0,0,1-1,.2,1.59,1.59,0,0,1-1.2-.4,1.66,1.66,0,0,1-.5-1.2c0-1.1.9-1.6,2.6-1.7h.9v-.3a1.06,1.06,0,0,0-1.2-1.2,3.07,3.07,0,0,0-1.5.4l-.2-.6a3.18,3.18,0,0,1,.9-.3c.3,0,.6-.1.9-.1a2,2,0,0,1,1.4.4,1.81,1.81,0,0,1,.5,1.4v3.7h-.6Zm-1.8-.6a1.41,1.41,0,0,0,1.6-1.6v-.5h-.8a2.65,2.65,0,0,0-1.4.3,1,1,0,0,0,.6,1.8Z" transform="translate(-68 -224.45)"/><path class="cls-7" d="M246.3,322.5v.5l-1,.1a.76.76,0,0,1,.2.4c0,.1.1.4.1.6a2.11,2.11,0,0,1-.5,1.3,1.72,1.72,0,0,1-1.5.5h-.4c-.3.2-.5.4-.5.7,0,.1.1.3.2.3a3.54,3.54,0,0,0,.6.1h.9a1.7,1.7,0,0,1,1.3.4,1.43,1.43,0,0,1,.5,1.1,1.62,1.62,0,0,1-.7,1.4,3.28,3.28,0,0,1-2.1.5,2.54,2.54,0,0,1-1.6-.4,1.25,1.25,0,0,1-.6-1.1,1.14,1.14,0,0,1,.3-.8,1.93,1.93,0,0,1,.9-.5c-.1-.1-.3-.2-.3-.3a4.33,4.33,0,0,1-.1-.5.76.76,0,0,1,.2-.5,2.18,2.18,0,0,1,.5-.4,1.34,1.34,0,0,1-.7-.6,1.61,1.61,0,0,1-.3-.9,2.17,2.17,0,0,1,.5-1.4,1.72,1.72,0,0,1,1.5-.5,2.2,2.2,0,0,1,.8.1h1.8Zm-4.3,6.3a.75.75,0,0,0,.4.7,1.64,1.64,0,0,0,1,.2,2.81,2.81,0,0,0,1.5-.3,1,1,0,0,0,.5-.8.6.6,0,0,0-.3-.6,2.15,2.15,0,0,0-1-.2h-1a1.22,1.22,0,0,0-.9.3C242,328.3,242,328.4,242,328.8Zm.4-4.6c0,.4.1.7.3.8a1.9,1.9,0,0,0,.9.3,1.2,1.2,0,0,0,0-2.4,1.22,1.22,0,0,0-.9.3A1.49,1.49,0,0,0,242.4,324.2Z" transform="translate(-68 -224.45)"/><path class="cls-7" d="M247.3,321.1c0-.2,0-.3.1-.4a.5.5,0,0,1,.6,0c.1.1.1.2.1.4s0,.3-.1.4a.37.37,0,0,1-.3.1c-.1,0-.3,0-.3-.1S247.3,321.3,247.3,321.1Zm.9,6.8h-.8v-5.4h.8Z" transform="translate(-68 -224.45)"/><path class="cls-7" d="M251.6,327.3h.4a.37.37,0,0,0,.3-.1v.6c-.1,0-.2.1-.4.1h-.5a1.43,1.43,0,0,1-1.6-1.6v-3.2H249v-.4l.8-.3.3-1.1h.5v1.2h1.6v.6h-1.6v3.1a1.17,1.17,0,0,0,.2.7A1.51,1.51,0,0,0,251.6,327.3Z" transform="translate(-68 -224.45)"/><path class="cls-7" d="M255.1,327.3h.4a.37.37,0,0,0,.3-.1v.6c-.1,0-.2.1-.4.1h-.5a1.43,1.43,0,0,1-1.6-1.6v-3.2h-.8v-.4l.8-.3.3-1.1h.5v1.2h1.6v.6h-1.6v3.1a1.17,1.17,0,0,0,.2.7A2,2,0,0,0,255.1,327.3Z" transform="translate(-68 -224.45)"/><path class="cls-7" d="M256.9,321.1c0-.2,0-.3.1-.4a.5.5,0,0,1,.6,0c.1.1.1.2.1.4s0,.3-.1.4a.37.37,0,0,1-.3.1c-.1,0-.3,0-.3-.1S256.9,321.3,256.9,321.1Zm.9,6.8H257v-5.4h.8Z" transform="translate(-68 -224.45)"/><path class="cls-7" d="M262.9,326.4a1.43,1.43,0,0,1-.6,1.2,2.54,2.54,0,0,1-1.6.4,4,4,0,0,1-1.7-.3v-.8c.3.1.5.2.8.3a2.77,2.77,0,0,0,.9.1,3,3,0,0,0,1-.2c.3-.1.3-.3.3-.6a.55.55,0,0,0-.3-.5,6.14,6.14,0,0,0-1.1-.5,3.83,3.83,0,0,1-1.1-.5c-.2-.2-.4-.3-.5-.5a1.42,1.42,0,0,1-.2-.6,1.23,1.23,0,0,1,.5-1,2.7,2.7,0,0,1,1.5-.4,3.53,3.53,0,0,1,1.7.4l-.3.7a4,4,0,0,0-1.5-.3,2,2,0,0,0-.9.2.55.55,0,0,0-.3.5.6.6,0,0,0,.1.4,1.38,1.38,0,0,0,.4.3c.2.1.5.2.9.4a3.75,3.75,0,0,1,1.3.7C262.4,326,262.9,326.1,262.9,326.4Z" transform="translate(-68 -224.45)"/><path class="cls-7" d="M273.7,327.9v-3.5a1.69,1.69,0,0,0-.3-1,.83.83,0,0,0-.8-.3,1.25,1.25,0,0,0-1.1.4,2.23,2.23,0,0,0-.4,1.3v3h-.8v-3.5a1.69,1.69,0,0,0-.3-1c-.2-.3-.5-.3-.9-.3a1.29,1.29,0,0,0-1.1.5,2.7,2.7,0,0,0-.4,1.5v2.8h-.8v-5.4h.7l.1.7h0a1.7,1.7,0,0,1,.6-.6,2.39,2.39,0,0,1,.9-.2,1.52,1.52,0,0,1,1.6.9h0a2.34,2.34,0,0,1,.7-.7,1.64,1.64,0,0,1,1-.2,2,2,0,0,1,1.4.5,2.07,2.07,0,0,1,.5,1.5v3.5h-.6Z" transform="translate(-68 -224.45)"/><path class="cls-7" d="M279.4,327.9l-.2-.8h0c-.3.3-.5.6-.8.7a3,3,0,0,1-1,.2,1.59,1.59,0,0,1-1.2-.4,1.66,1.66,0,0,1-.5-1.2c0-1.1.9-1.6,2.6-1.7h.9v-.3a1.06,1.06,0,0,0-1.2-1.2,3.07,3.07,0,0,0-1.5.4l-.2-.6a3.18,3.18,0,0,1,.9-.3c.3,0,.6-.1.9-.1a2,2,0,0,1,1.4.4,1.81,1.81,0,0,1,.5,1.4v3.7h-.6Zm-1.8-.6a1.41,1.41,0,0,0,1.6-1.6v-.5h-.8a2.65,2.65,0,0,0-1.4.3,1,1,0,0,0,.6,1.8Z" transform="translate(-68 -224.45)"/><path class="cls-7" d="M282.5,322.5V326a1.49,1.49,0,0,0,.3,1,1.22,1.22,0,0,0,.9.3,1.36,1.36,0,0,0,1.2-.5,2.7,2.7,0,0,0,.4-1.5v-2.8h.8v5.4h-.7l-.1-.7h0a1.34,1.34,0,0,1-.7.6,3,3,0,0,1-1,.2,2.25,2.25,0,0,1-1.5-.5,1.72,1.72,0,0,1-.5-1.5v-3.5Z" transform="translate(-68 -224.45)"/><path class="cls-7" d="M290.3,322.4c.2,0,.5,0,.6.1l-.1.8c-.2,0-.4-.1-.6-.1a1.61,1.61,0,0,0-1.1.5,1.9,1.9,0,0,0-.5,1.3v2.9h-.8v-5.4h.7l.1,1h0a2.7,2.7,0,0,1,.7-.8A1.69,1.69,0,0,1,290.3,322.4Z" transform="translate(-68 -224.45)"/><path class="cls-7" d="M291.9,321.1c0-.2,0-.3.1-.4a.5.5,0,0,1,.6,0c.1.1.1.2.1.4s0,.3-.1.4a.37.37,0,0,1-.3.1c-.1,0-.3,0-.3-.1S291.9,321.3,291.9,321.1Zm.8,6.8h-.8v-5.4h.8Z" transform="translate(-68 -224.45)"/><path class="cls-7" d="M297.9,326.4a1.43,1.43,0,0,1-.6,1.2,2.54,2.54,0,0,1-1.6.4,4,4,0,0,1-1.7-.3v-.8c.3.1.5.2.8.3a2.77,2.77,0,0,0,.9.1,3,3,0,0,0,1-.2c.3-.1.3-.3.3-.6a.55.55,0,0,0-.3-.5,6.14,6.14,0,0,0-1.1-.5,3.83,3.83,0,0,1-1.1-.5c-.2-.2-.4-.3-.5-.5a1.42,1.42,0,0,1-.2-.6,1.23,1.23,0,0,1,.5-1,2.7,2.7,0,0,1,1.5-.4,3.53,3.53,0,0,1,1.7.4l-.3.7a4,4,0,0,0-1.5-.3,2,2,0,0,0-.9.2.55.55,0,0,0-.3.5.6.6,0,0,0,.1.4,1.38,1.38,0,0,0,.4.3c.2.1.5.2.9.4a3.75,3.75,0,0,1,1.3.7C297.4,326,297.9,326.1,297.9,326.4Z" transform="translate(-68 -224.45)"/><path class="cls-7" d="M305.5,327.9v-3.5a1.49,1.49,0,0,0-.3-1,1.22,1.22,0,0,0-.9-.3,1.36,1.36,0,0,0-1.2.5,2.08,2.08,0,0,0-.4,1.5v2.8h-.8v-5.4h.7l.1.7h0a1.34,1.34,0,0,1,.7-.6,3,3,0,0,1,1-.2,2.46,2.46,0,0,1,1.5.5,2.07,2.07,0,0,1,.5,1.5v3.5Z" transform="translate(-68 -224.45)"/><path class="cls-7" d="M310.2,328a2.49,2.49,0,0,1-1.9-.7,2.72,2.72,0,0,1-.7-2,3.48,3.48,0,0,1,.6-2.1,2.19,2.19,0,0,1,3.3-.1,2.52,2.52,0,0,1,.6,1.7v.5h-3.7a2,2,0,0,0,.5,1.4,1.73,1.73,0,0,0,1.3.5,3.53,3.53,0,0,0,1.7-.4v.7a6.89,6.89,0,0,0-.8.3A2,2,0,0,1,310.2,328Zm-.2-4.9a1.16,1.16,0,0,0-1,.4,2.2,2.2,0,0,0-.5,1.2h2.8a2.13,2.13,0,0,0-.3-1.2A1.16,1.16,0,0,0,310,323.1Z" transform="translate(-68 -224.45)"/><path class="cls-7" d="M315.7,328a2.14,2.14,0,0,1-1.8-.7,3.17,3.17,0,0,1-.6-2,3.28,3.28,0,0,1,.6-2.1,2.14,2.14,0,0,1,1.8-.7,2.2,2.2,0,0,1,.8.1c.3.1.5.1.6.2l-.2.7c-.2-.1-.4-.1-.6-.2s-.4-.1-.6-.1c-1.1,0-1.6.7-1.6,2.1a2.08,2.08,0,0,0,.4,1.5,1.35,1.35,0,0,0,1.2.5,3.93,3.93,0,0,0,1.4-.3v.7A2.9,2.9,0,0,1,315.7,328Z" transform="translate(-68 -224.45)"/><path class="cls-7" d="M388.5,327.9l-.9-2.3h-2.9l-.9,2.3H383l2.8-7.2h.7l2.8,7.2Zm-1.1-3-.8-2.2c-.1-.3-.2-.6-.3-1-.1.3-.2.7-.3,1l-.8,2.2Z" transform="translate(-68 -224.45)"/><path class="cls-7" d="M392.4,328a2.14,2.14,0,0,1-1.8-.7,3.17,3.17,0,0,1-.6-2,3.28,3.28,0,0,1,.6-2.1,2.14,2.14,0,0,1,1.8-.7,2.2,2.2,0,0,1,.8.1c.3.1.5.1.6.2l-.2.7c-.2-.1-.4-.1-.6-.2a1.27,1.27,0,0,0-.6-.1c-1.1,0-1.6.7-1.6,2.1a2.08,2.08,0,0,0,.4,1.5,1.35,1.35,0,0,0,1.2.5,3.93,3.93,0,0,0,1.4-.3v.7A3.19,3.19,0,0,1,392.4,328Z" transform="translate(-68 -224.45)"/><path class="cls-7" d="M397.1,328a2.14,2.14,0,0,1-1.8-.7,3.17,3.17,0,0,1-.6-2,3.28,3.28,0,0,1,.6-2.1,2.14,2.14,0,0,1,1.8-.7,2.2,2.2,0,0,1,.8.1c.3.1.5.1.6.2l-.2.7c-.2-.1-.4-.1-.6-.2a1.27,1.27,0,0,0-.6-.1c-1.1,0-1.6.7-1.6,2.1a2.08,2.08,0,0,0,.4,1.5,1.35,1.35,0,0,0,1.2.5,3.93,3.93,0,0,0,1.4-.3v.7A2.9,2.9,0,0,1,397.1,328Z" transform="translate(-68 -224.45)"/><path class="cls-7" d="M400.5,322.5V326a1.49,1.49,0,0,0,.3,1,1.22,1.22,0,0,0,.9.3,1.36,1.36,0,0,0,1.2-.5,2.08,2.08,0,0,0,.4-1.5v-2.8h.8v5.4h-.7l-.1-.7h0a1.34,1.34,0,0,1-.7.6,3,3,0,0,1-1,.2,2.25,2.25,0,0,1-1.5-.5,2.07,2.07,0,0,1-.5-1.5v-3.5Z" transform="translate(-68 -224.45)"/><path class="cls-7" d="M412.7,327.9v-3.5a1.69,1.69,0,0,0-.3-1,.83.83,0,0,0-.8-.3,1.25,1.25,0,0,0-1.1.4,2.23,2.23,0,0,0-.4,1.3v3h-.8v-3.5a1.69,1.69,0,0,0-.3-1c-.2-.3-.5-.3-.9-.3a1.29,1.29,0,0,0-1.1.5,2.7,2.7,0,0,0-.4,1.5v2.8h-.8v-5.4h.7l.1.7h0a1.7,1.7,0,0,1,.6-.6,2.92,2.92,0,0,1,.9-.2,1.52,1.52,0,0,1,1.6.9h0a2.34,2.34,0,0,1,.7-.7,1.64,1.64,0,0,1,1-.2,2,2,0,0,1,1.4.5,2.07,2.07,0,0,1,.5,1.5v3.5h-.6Z" transform="translate(-68 -224.45)"/><path class="cls-7" d="M418.6,326.4a1.43,1.43,0,0,1-.6,1.2,2.54,2.54,0,0,1-1.6.4,4,4,0,0,1-1.7-.3v-.8c.3.1.5.2.8.3a2.77,2.77,0,0,0,.9.1,3,3,0,0,0,1-.2c.3-.1.3-.3.3-.6a.55.55,0,0,0-.3-.5,6.14,6.14,0,0,0-1.1-.5,3.83,3.83,0,0,1-1.1-.5,1.21,1.21,0,0,1-.5-.5,1.42,1.42,0,0,1-.2-.6,1.23,1.23,0,0,1,.5-1,2.7,2.7,0,0,1,1.5-.4,3.53,3.53,0,0,1,1.7.4l-.3.7a4,4,0,0,0-1.5-.3,2,2,0,0,0-.9.2.55.55,0,0,0-.3.5.6.6,0,0,0,.1.4,1.38,1.38,0,0,0,.4.3c.2.1.5.2.9.4a3.75,3.75,0,0,1,1.3.7C418.5,325.8,418.6,326.1,418.6,326.4Z" transform="translate(-68 -224.45)"/><path class="cls-7" d="M423.2,327.9l-.2-.8h0c-.3.3-.5.6-.8.7a3,3,0,0,1-1,.2,1.59,1.59,0,0,1-1.2-.4,1.66,1.66,0,0,1-.5-1.2c0-1.1.9-1.6,2.6-1.7h.9v-.3a1.06,1.06,0,0,0-1.2-1.2,3.07,3.07,0,0,0-1.5.4l-.2-.6a3.18,3.18,0,0,1,.9-.3,2.77,2.77,0,0,1,.9-.1,2,2,0,0,1,1.4.4,1.81,1.81,0,0,1,.5,1.4v3.7h-.6Zm-1.8-.6a1.41,1.41,0,0,0,1.6-1.6v-.5h-.8a2.65,2.65,0,0,0-1.4.3,1,1,0,0,0-.1,1.5A.78.78,0,0,0,421.4,327.3Z" transform="translate(-68 -224.45)"/><path class="cls-7" d="M429.2,327.9v-3.5a1.49,1.49,0,0,0-.3-1,1.22,1.22,0,0,0-.9-.3,1.36,1.36,0,0,0-1.2.5,2.7,2.7,0,0,0-.4,1.5v2.8h-.8v-5.4h.7l.1.7h0a1.34,1.34,0,0,1,.7-.6,3,3,0,0,1,1-.2,2.46,2.46,0,0,1,1.5.5,1.72,1.72,0,0,1,.5,1.5v3.5Z" transform="translate(-68 -224.45)"/><path class="cls-7" d="M437.9,327.9v-3.5a1.49,1.49,0,0,0-.3-1,1.22,1.22,0,0,0-.9-.3,1.36,1.36,0,0,0-1.2.5,2.7,2.7,0,0,0-.4,1.5v2.8h-.8v-5.4h.7l.1.7h0a1.34,1.34,0,0,1,.7-.6,3,3,0,0,1,1-.2,2.46,2.46,0,0,1,1.5.5,1.72,1.72,0,0,1,.5,1.5v3.5Z" transform="translate(-68 -224.45)"/><path class="cls-7" d="M441.2,322.5V326a1.49,1.49,0,0,0,.3,1,1.22,1.22,0,0,0,.9.3,1.36,1.36,0,0,0,1.2-.5,2.08,2.08,0,0,0,.4-1.5v-2.8h.8v5.4h-.7l-.1-.7h0a1.34,1.34,0,0,1-.7.6,3,3,0,0,1-1,.2,2.25,2.25,0,0,1-1.5-.5,2.07,2.07,0,0,1-.5-1.5v-3.5Z" transform="translate(-68 -224.45)"/><path class="cls-7" d="M450.2,327.9v-3.5a1.49,1.49,0,0,0-.3-1,1.22,1.22,0,0,0-.9-.3,1.36,1.36,0,0,0-1.2.5,2.7,2.7,0,0,0-.4,1.5v2.8h-.8v-5.4h.7l.1.7h0a1.34,1.34,0,0,1,.7-.6,3,3,0,0,1,1-.2,2.46,2.46,0,0,1,1.5.5,1.72,1.72,0,0,1,.5,1.5v3.5Z" transform="translate(-68 -224.45)"/><path class="cls-7" d="M454.8,328a2.14,2.14,0,0,1-1.8-.7,3.17,3.17,0,0,1-.6-2,3.28,3.28,0,0,1,.6-2.1,2.14,2.14,0,0,1,1.8-.7,2.2,2.2,0,0,1,.8.1c.3.1.5.1.6.2l-.2.7c-.2-.1-.4-.1-.6-.2a1.27,1.27,0,0,0-.6-.1c-1.1,0-1.6.7-1.6,2.1a2.08,2.08,0,0,0,.4,1.5,1.35,1.35,0,0,0,1.2.5,3.93,3.93,0,0,0,1.4-.3v.7A3.19,3.19,0,0,1,454.8,328Z" transform="translate(-68 -224.45)"/><path class="cls-1" d="M82,354.3a1.8,1.8,0,0,1-.7,1.5,2.85,2.85,0,0,1-1.9.5,4,4,0,0,1-2-.4v-1.1a4.18,4.18,0,0,0,1,.4,3.4,3.4,0,0,0,1,.1,1.33,1.33,0,0,0,1-.3,1,1,0,0,0,0-1.4,5.35,5.35,0,0,0-1.2-.7,4.21,4.21,0,0,1-1.4-.9,1.59,1.59,0,0,1-.4-1.2,1.68,1.68,0,0,1,.6-1.4,2.86,2.86,0,0,1,1.7-.5,4.48,4.48,0,0,1,2,.4l-.4,1a3.81,3.81,0,0,0-1.7-.4,2,2,0,0,0-.9.2.78.78,0,0,0-.3.7.9.9,0,0,0,.1.5.78.78,0,0,0,.4.4,8.92,8.92,0,0,0,1,.5,6.66,6.66,0,0,1,1.2.6,1.33,1.33,0,0,1,.5.6A2.47,2.47,0,0,1,82,354.3Z" transform="translate(-68 -224.45)"/><path class="cls-1" d="M83.1,349.4a.7.7,0,1,1,1.4,0c0,.2-.1.3-.2.5s-.3.1-.5.1a.76.76,0,0,1-.5-.2A.52.52,0,0,1,83.1,349.4Zm1.3,6.8H83.3v-5.4h1.1Z" transform="translate(-68 -224.45)"/><path class="cls-1" d="M88,355.4a2,2,0,0,0,.8-.1v.9a.75.75,0,0,1-.5.1c-.2,0-.4.1-.6.1-1.1,0-1.6-.6-1.6-1.7v-2.9h-.7v-.5l.8-.4.4-1.1h.7V351h1.5v.9H87.3v2.9a.85.85,0,0,0,.2.6C87.6,355.5,87.8,355.4,88,355.4Z" transform="translate(-68 -224.45)"/><path class="cls-7" d="M234.1,356.2l-2.4-6.3h0c0,.5.1,1.1.1,1.8v4.5H231v-7.1h1.2l2.3,5.9h0l2.3-5.9H238v7.1h-.8v-4.6a10.28,10.28,0,0,1,.1-1.7h0l-2.4,6.3Z" transform="translate(-68 -224.45)"/><path class="cls-7" d="M243.1,356.2l-.2-.8h0c-.3.3-.5.6-.8.7a3,3,0,0,1-1,.2,1.59,1.59,0,0,1-1.2-.4,1.66,1.66,0,0,1-.5-1.2c0-1.1.9-1.6,2.6-1.7h.9v-.3a1.06,1.06,0,0,0-1.2-1.2,3.07,3.07,0,0,0-1.5.4l-.2-.6a3.18,3.18,0,0,1,.9-.3c.3,0,.6-.1.9-.1a2,2,0,0,1,1.4.4,1.81,1.81,0,0,1,.5,1.4v3.7h-.6Zm-1.8-.5a1.41,1.41,0,0,0,1.6-1.6v-.5h-.8a2.65,2.65,0,0,0-1.4.3,1,1,0,0,0,.6,1.8Z" transform="translate(-68 -224.45)"/><path class="cls-7" d="M246.7,353.5l-1.9-2.6h.9l1.4,2.1,1.4-2.1h.9l-1.9,2.6,2,2.7h-.9l-1.5-2.2-1.5,2.2h-.9Z" transform="translate(-68 -224.45)"/><path class="cls-7" d="M250.6,349.4c0-.2,0-.3.1-.4a.5.5,0,0,1,.6,0c.1.1.1.2.1.4s0,.3-.1.4a.37.37,0,0,1-.3.1c-.1,0-.3,0-.3-.1S250.6,349.6,250.6,349.4Zm.9,6.8h-.8v-5.4h.8Z" transform="translate(-68 -224.45)"/><path class="cls-7" d="M260,356.2v-3.5a1.69,1.69,0,0,0-.3-1,.83.83,0,0,0-.8-.3,1.25,1.25,0,0,0-1.1.4,2.23,2.23,0,0,0-.4,1.3v3h-.8v-3.5a1.69,1.69,0,0,0-.3-1c-.2-.3-.5-.3-.9-.3a1.29,1.29,0,0,0-1.1.5,2.7,2.7,0,0,0-.4,1.5v2.8h-.8v-5.4h.7l.1.7h0a1.7,1.7,0,0,1,.6-.6,2.39,2.39,0,0,1,.9-.2,1.52,1.52,0,0,1,1.6.9h0a2.34,2.34,0,0,1,.7-.7,1.64,1.64,0,0,1,1-.2,2,2,0,0,1,1.4.5,2.07,2.07,0,0,1,.5,1.5v3.5H260Z" transform="translate(-68 -224.45)"/><path class="cls-7" d="M263.2,350.9v3.5a1.49,1.49,0,0,0,.3,1,1.22,1.22,0,0,0,.9.3,1.36,1.36,0,0,0,1.2-.5,2.7,2.7,0,0,0,.4-1.5v-2.8h.8v5.4h-.7l-.1-.7h0a1.34,1.34,0,0,1-.7.6,3,3,0,0,1-1,.2,2.25,2.25,0,0,1-1.5-.5,1.72,1.72,0,0,1-.5-1.5v-3.5Z" transform="translate(-68 -224.45)"/><path class="cls-7" d="M272.1,354.8a1.43,1.43,0,0,1-.6,1.2,2.54,2.54,0,0,1-1.6.4,4,4,0,0,1-1.7-.3v-.8c.3.1.5.2.8.3a2.77,2.77,0,0,0,.9.1,3,3,0,0,0,1-.2c.3-.1.3-.3.3-.6a.55.55,0,0,0-.3-.5,6.14,6.14,0,0,0-1.1-.5,3.83,3.83,0,0,1-1.1-.5c-.2-.2-.4-.3-.5-.5a1.42,1.42,0,0,1-.2-.6,1.23,1.23,0,0,1,.5-1,2.7,2.7,0,0,1,1.5-.4,3.53,3.53,0,0,1,1.7.4l-.3.7a4,4,0,0,0-1.5-.3,2,2,0,0,0-.9.2.55.55,0,0,0-.3.5.6.6,0,0,0,.1.4,1.38,1.38,0,0,0,.4.3c.2.1.5.2.9.4a3.75,3.75,0,0,1,1.3.7C271.6,354.4,272.1,354.4,272.1,354.8Z" transform="translate(-68 -224.45)"/><path class="cls-7" d="M279.6,355.5h0a2.14,2.14,0,0,1-1.7.8,1.86,1.86,0,0,1-1.6-.7,3.17,3.17,0,0,1-.6-2,3.48,3.48,0,0,1,.6-2.1,1.86,1.86,0,0,1,1.6-.7,2.14,2.14,0,0,1,1.7.8h.1v-3h.8v7.6h-.7Zm-1.6.1a1.36,1.36,0,0,0,1.2-.5,2.7,2.7,0,0,0,.4-1.5v-.2a2.2,2.2,0,0,0-.4-1.6,1.66,1.66,0,0,0-1.2-.5,1.25,1.25,0,0,0-1.1.6,2.54,2.54,0,0,0-.4,1.6,2.08,2.08,0,0,0,.4,1.5A1.52,1.52,0,0,0,278,355.6Z" transform="translate(-68 -224.45)"/><path class="cls-7" d="M282.1,349.4c0-.2,0-.3.1-.4a.5.5,0,0,1,.6,0c.1.1.1.2.1.4s0,.3-.1.4a.37.37,0,0,1-.3.1c-.1,0-.3,0-.3-.1S282.1,349.6,282.1,349.4Zm.8,6.8h-.8v-5.4h.8Z" transform="translate(-68 -224.45)"/><path class="cls-7" d="M287.9,356.2l-.2-.8h0c-.3.3-.5.6-.8.7a3,3,0,0,1-1,.2,1.59,1.59,0,0,1-1.2-.4,1.66,1.66,0,0,1-.5-1.2c0-1.1.9-1.6,2.6-1.7h.9v-.3a1.06,1.06,0,0,0-1.2-1.2,3.07,3.07,0,0,0-1.5.4l-.2-.6a3.18,3.18,0,0,1,.9-.3c.3,0,.6-.1.9-.1a2,2,0,0,1,1.4.4,1.81,1.81,0,0,1,.5,1.4v3.7h-.6Zm-1.8-.5a1.41,1.41,0,0,0,1.6-1.6v-.5h-.8a2.65,2.65,0,0,0-1.4.3,1,1,0,0,0,.6,1.8Z" transform="translate(-68 -224.45)"/><path class="cls-7" d="M297,356.2v-3.5a1.69,1.69,0,0,0-.3-1,.83.83,0,0,0-.8-.3,1.25,1.25,0,0,0-1.1.4,2.23,2.23,0,0,0-.4,1.3v3h-.8v-3.5a1.69,1.69,0,0,0-.3-1c-.2-.3-.5-.3-.9-.3a1.29,1.29,0,0,0-1.1.5,2.7,2.7,0,0,0-.4,1.5v2.8h-.8v-5.4h.7l.1.7h0a1.7,1.7,0,0,1,.6-.6,2.39,2.39,0,0,1,.9-.2,1.52,1.52,0,0,1,1.6.9h0a2.34,2.34,0,0,1,.7-.7,1.64,1.64,0,0,1,1-.2,2,2,0,0,1,1.4.5,2.07,2.07,0,0,1,.5,1.5v3.5H297Z" transform="translate(-68 -224.45)"/><path class="cls-7" d="M388.5,356.2l-.9-2.3h-2.9l-.9,2.3H383l2.8-7.2h.7l2.8,7.2Zm-1.1-3-.8-2.2c-.1-.3-.2-.6-.3-1-.1.3-.2.7-.3,1l-.8,2.2Z" transform="translate(-68 -224.45)"/><path class="cls-7" d="M392.4,356.3a2.14,2.14,0,0,1-1.8-.7,3.17,3.17,0,0,1-.6-2,3.28,3.28,0,0,1,.6-2.1,2.14,2.14,0,0,1,1.8-.7,2.2,2.2,0,0,1,.8.1c.3.1.5.1.6.2l-.2.7c-.2-.1-.4-.1-.6-.2a1.27,1.27,0,0,0-.6-.1c-1.1,0-1.6.7-1.6,2.1a2.08,2.08,0,0,0,.4,1.5,1.35,1.35,0,0,0,1.2.5,3.93,3.93,0,0,0,1.4-.3v.7A3.19,3.19,0,0,1,392.4,356.3Z" transform="translate(-68 -224.45)"/><path class="cls-7" d="M404.4,356.2v-3.5a1.69,1.69,0,0,0-.3-1,.83.83,0,0,0-.8-.3,1.25,1.25,0,0,0-1.1.4,2.23,2.23,0,0,0-.4,1.3v3H401v-3.5a1.69,1.69,0,0,0-.3-1c-.2-.3-.5-.3-.9-.3a1.29,1.29,0,0,0-1.1.5,2.7,2.7,0,0,0-.4,1.5v2.8h-.8v-5.4h.7l.1.7h0a1.7,1.7,0,0,1,.6-.6,2.92,2.92,0,0,1,.9-.2,1.52,1.52,0,0,1,1.6.9h0a2.34,2.34,0,0,1,.7-.7,1.64,1.64,0,0,1,1-.2,2,2,0,0,1,1.4.5,2.07,2.07,0,0,1,.5,1.5v3.5h-.6Z" transform="translate(-68 -224.45)"/><path class="cls-7" d="M410.2,356.2l-.2-.8h0c-.3.3-.5.6-.8.7a3,3,0,0,1-1,.2,1.59,1.59,0,0,1-1.2-.4,1.66,1.66,0,0,1-.5-1.2c0-1.1.9-1.6,2.6-1.7h.9v-.3a1.06,1.06,0,0,0-1.2-1.2,3.07,3.07,0,0,0-1.5.4l-.2-.6a3.18,3.18,0,0,1,.9-.3,2.77,2.77,0,0,1,.9-.1,2,2,0,0,1,1.4.4,1.81,1.81,0,0,1,.5,1.4v3.7h-.6Zm-1.9-.5a1.41,1.41,0,0,0,1.6-1.6v-.5h-.8a2.65,2.65,0,0,0-1.4.3,1,1,0,0,0,.6,1.8Z" transform="translate(-68 -224.45)"/><path class="cls-7" d="M413.3,356.2h-.8v-7.6h.8Z" transform="translate(-68 -224.45)"/><path class="cls-7" d="M417.2,356.3a2.49,2.49,0,0,1-1.9-.7,2.72,2.72,0,0,1-.7-2,3.48,3.48,0,0,1,.6-2.1,2.14,2.14,0,0,1,1.7-.8,1.86,1.86,0,0,1,1.6.7,2.52,2.52,0,0,1,.6,1.7v.5h-3.7a2,2,0,0,0,.5,1.4,1.73,1.73,0,0,0,1.3.5,3.53,3.53,0,0,0,1.7-.4v.7a6.89,6.89,0,0,0-.8.3C417.9,356.3,417.6,356.3,417.2,356.3Zm-.2-4.8a1.16,1.16,0,0,0-1,.4,2.2,2.2,0,0,0-.5,1.2h2.8a2.13,2.13,0,0,0-.3-1.2A1.16,1.16,0,0,0,417,351.5Z" transform="translate(-68 -224.45)"/><path class="cls-7" d="M424,354.8a1.43,1.43,0,0,1-.6,1.2,2.54,2.54,0,0,1-1.6.4,4,4,0,0,1-1.7-.3v-.8c.3.1.5.2.8.3a2.77,2.77,0,0,0,.9.1,3,3,0,0,0,1-.2c.3-.1.3-.3.3-.6a.55.55,0,0,0-.3-.5,6.14,6.14,0,0,0-1.1-.5,3.83,3.83,0,0,1-1.1-.5,1.21,1.21,0,0,1-.5-.5,1.42,1.42,0,0,1-.2-.6,1.23,1.23,0,0,1,.5-1,2.7,2.7,0,0,1,1.5-.4,3.53,3.53,0,0,1,1.7.4l-.3.7a4,4,0,0,0-1.5-.3,2,2,0,0,0-.9.2.55.55,0,0,0-.3.5.6.6,0,0,0,.1.4,1.38,1.38,0,0,0,.4.3c.2.1.5.2.9.4a3.75,3.75,0,0,1,1.3.7C423.9,354.1,424,354.4,424,354.8Z" transform="translate(-68 -224.45)"/><path class="cls-7" d="M426.1,350.9v3.5a1.49,1.49,0,0,0,.3,1,1.22,1.22,0,0,0,.9.3,1.36,1.36,0,0,0,1.2-.5,2.08,2.08,0,0,0,.4-1.5v-2.8h.8v5.4H429l-.1-.7h0a1.34,1.34,0,0,1-.7.6,3,3,0,0,1-1,.2,2.25,2.25,0,0,1-1.5-.5,2.07,2.07,0,0,1-.5-1.5v-3.5Z" transform="translate(-68 -224.45)"/><path class="cls-7" d="M434.8,356.2l-.2-.8h0c-.3.3-.5.6-.8.7a3,3,0,0,1-1,.2,1.59,1.59,0,0,1-1.2-.4,1.66,1.66,0,0,1-.5-1.2c0-1.1.9-1.6,2.6-1.7h.9v-.3a1.06,1.06,0,0,0-1.2-1.2,3.07,3.07,0,0,0-1.5.4l-.2-.6a3.18,3.18,0,0,1,.9-.3,2.77,2.77,0,0,1,.9-.1,2,2,0,0,1,1.4.4,1.81,1.81,0,0,1,.5,1.4v3.7h-.6Zm-1.8-.5a1.41,1.41,0,0,0,1.6-1.6v-.5h-.8a2.65,2.65,0,0,0-1.4.3,1,1,0,0,0-.1,1.5C432.4,355.6,432.6,355.7,433,355.7Z" transform="translate(-68 -224.45)"/><path class="cls-7" d="M440.7,355.5h0a2.14,2.14,0,0,1-1.7.8,1.86,1.86,0,0,1-1.6-.7,3.17,3.17,0,0,1-.6-2,3.48,3.48,0,0,1,.6-2.1,1.86,1.86,0,0,1,1.6-.7,2.14,2.14,0,0,1,1.7.8h.1v-3h.8v7.6h-.7Zm-1.6.1a1.36,1.36,0,0,0,1.2-.5,2.7,2.7,0,0,0,.4-1.5v-.2a2.2,2.2,0,0,0-.4-1.6,1.66,1.66,0,0,0-1.2-.5,1.25,1.25,0,0,0-1.1.6,2.54,2.54,0,0,0-.4,1.6,2.08,2.08,0,0,0,.4,1.5A1.52,1.52,0,0,0,439.1,355.6Z" transform="translate(-68 -224.45)"/><path class="cls-7" d="M446.5,356.2l-.2-.8h0c-.3.3-.5.6-.8.7a3,3,0,0,1-1,.2,1.59,1.59,0,0,1-1.2-.4,1.66,1.66,0,0,1-.5-1.2c0-1.1.9-1.6,2.6-1.7h.9v-.3a1.06,1.06,0,0,0-1.2-1.2,3.07,3.07,0,0,0-1.5.4l-.2-.6a3.18,3.18,0,0,1,.9-.3,2.77,2.77,0,0,1,.9-.1,2,2,0,0,1,1.4.4,1.81,1.81,0,0,1,.5,1.4v3.7h-.6Zm-1.9-.5a1.41,1.41,0,0,0,1.6-1.6v-.5h-.8a2.65,2.65,0,0,0-1.4.3,1,1,0,0,0,.6,1.8Z" transform="translate(-68 -224.45)"/></svg>